<svg id="Layer_1" data-name="Layer 1" xmlns="http://www.w3.org/2000/svg" viewBox="0 0 200 60"><defs><style>.cls-1{fill:#445082;}.cls-2{fill:none;}.cls-3{fill:#fff;}</style></defs><path class="cls-1" d="M64.86,22.52a9.21,9.21,0,0,1,5.07,1.38,7.38,7.38,0,0,1,3.33,6.65,7.53,7.53,0,0,1-2.34,5.73,8.45,8.45,0,0,1-6,2.25H57.12V37.8h2.13V23.24H57.12v-.72Zm-2.32.72V37.8h2.34a5.09,5.09,0,0,0,1.61-.24c2.08-.67,3.12-3.05,3.12-7.12a14.42,14.42,0,0,0-.48-4.06,4.09,4.09,0,0,0-4.25-3.14Z"/><path class="cls-1" d="M81.85,37.86c.27,0,.41.26.41.67H75v-.7a4.19,4.19,0,0,0,.88-.08c.54-.14.81-.59.81-1.36V27.77H75V27.1h4.41l.16,2.51a4.45,4.45,0,0,1,.88-1.38,3.93,3.93,0,0,1,2.91-1.34A2.87,2.87,0,0,1,84,27a1.51,1.51,0,0,1,1.25,1.6,1.47,1.47,0,0,1-.13.62,1.39,1.39,0,0,1-1.36.93,1.7,1.7,0,0,1-.51-.08,1.89,1.89,0,0,1-1-1c-.23-.41-.46-.62-.7-.62a.92.92,0,0,0-.5.19c-.84.59-1.32,1.73-1.44,3.44v5.79h1.94A.88.88,0,0,1,81.85,37.86Z"/><path class="cls-1" d="M96.1,27.88a5.54,5.54,0,0,1,2.24,4.77,6.12,6.12,0,0,1-1.38,4,6,6,0,0,1-10.68-4,5.82,5.82,0,0,1,1.34-3.84,6.53,6.53,0,0,1,8.48-.93ZM89.78,35.8c.36,1.53,1.2,2.3,2.53,2.3a2.59,2.59,0,0,0,1.2-.27c1.09-.59,1.63-2.31,1.63-5.18a13.66,13.66,0,0,0-.26-2.93,2.52,2.52,0,0,0-2.57-2.29,2.64,2.64,0,0,0-1.36.34c-1,.62-1.44,2.29-1.44,5A13.74,13.74,0,0,0,89.78,35.8Z"/><path class="cls-1" d="M105.63,37.86c.23,0,.35.27.35.67H99.84v-.7a4,4,0,0,0,.83-.08c.58-.12.88-.58.88-1.36V27.77H99.84V27.1h4.48l.14,2.22a4.63,4.63,0,0,1,.69-1.07,4.17,4.17,0,0,1,3.25-1.52,3.89,3.89,0,0,1,1.5.29q2.19.91,2.19,4.06v6.75h1l.32,0c.23,0,.34.27.34.67h-6.11v-.7a2.42,2.42,0,0,0,.86-.11c.41-.14.61-.58.61-1.33V30.68a4,4,0,0,0-.13-1.07,1.83,1.83,0,0,0-1.9-1.57,2.16,2.16,0,0,0-1,.27,3.43,3.43,0,0,0-1.6,2.93l0,6.59h.83A1.73,1.73,0,0,1,105.63,37.86Z"/><path class="cls-1" d="M125.48,36.63a4.81,4.81,0,0,1-4.4,2.16,6.48,6.48,0,0,1-3.23-.8,5.57,5.57,0,0,1-2.7-5.23A6.33,6.33,0,0,1,116.3,29a5.47,5.47,0,0,1,4.7-2.22,6.82,6.82,0,0,1,3,.64,3.4,3.4,0,0,1,2.14,3.18,1.84,1.84,0,0,1-.27,1q-.8,1.23-4.8,1.15l-2.7-.06v.06q.14,5.31,3.26,5.31a3.51,3.51,0,0,0,1.15-.19,3.88,3.88,0,0,0,2.45-2.21l.64.21A6,6,0,0,1,125.48,36.63Zm-5.1-9.12q-1.89.58-2,4.37l2.06.08a6.59,6.59,0,0,0,1.71-.13,1.48,1.48,0,0,0,.9-1.58,4.3,4.3,0,0,0-.08-.88c-.21-1.3-.87-1.94-2-1.94A2.3,2.3,0,0,0,120.38,27.51Z"/><path class="cls-1" d="M133.94,37.86c.27,0,.4.26.4.67H127.4v-.7a6.48,6.48,0,0,0,.83,0,1.27,1.27,0,0,0,1.2-1.39V21.88h-2v-.7h5V32.71l5.23-4.94h-2V27.1h4.54a1.24,1.24,0,0,1,0,.27c0,.27-.26.4-.67.4a1.8,1.8,0,0,0-.48.06,3.61,3.61,0,0,0-1.38,1l-2.14,2,4.27,7h.59a1.36,1.36,0,0,1,.29,0c.23,0,.35.26.35.67l-4.14,0-3.41-5.76-1,1v4h1.33A.88.88,0,0,1,133.94,37.86Z"/><path class="cls-1" d="M147.41,37.86c.27,0,.4.26.4.67h-6.4v-.7a3.76,3.76,0,0,0,.85-.08c.59-.14.89-.59.89-1.36V27.77h-1.74V27.1h4.67V37.83h1.09A.88.88,0,0,1,147.41,37.86Zm-1.28-13.53a1.69,1.69,0,0,1-1.6.93,2,2,0,0,1-.82-.18,1.66,1.66,0,0,1-1-1.6,1.94,1.94,0,0,1,.21-.86,1.68,1.68,0,0,1,1.6-1,1.78,1.78,0,0,1,.83.22,1.73,1.73,0,0,1,1,1.63A1.71,1.71,0,0,1,146.13,24.33Z"/><path class="cls-1" d="M148.91,27.18h1.84V24.65l2.93-.56v3.09h3.74v.7h-3.74V36a4.89,4.89,0,0,0,0,.54c.13,1,.56,1.52,1.31,1.52s1.5-.82,1.89-2.4l.72.1a6.33,6.33,0,0,1-.42,1.42,2.83,2.83,0,0,1-2.86,1.68q-3.36-.14-3.6-4V27.88h-1.84Z"/><path class="cls-1" d="M162.94,38c1.2,0,1.93-.4,2.22-1.2a1.89,1.89,0,0,0,.08-.53q0-1.28-1.68-2.16c-.25-.13-.64-.3-1.18-.53A8.79,8.79,0,0,1,159.64,32a3,3,0,0,1,1.57-4.88,7,7,0,0,1,2.27-.35,6.16,6.16,0,0,1,3.2.75c0-.54.14-.83.43-.88a1.09,1.09,0,0,1,.26,0v3.34h-.8q-.1-2.43-2.67-2.46c-1.19,0-1.93.38-2.21,1.12a1.76,1.76,0,0,0-.11.59c0,.75.54,1.4,1.6,1.95l1.12.5a8.55,8.55,0,0,1,2.81,1.69,3.12,3.12,0,0,1,.8,2.13,3,3,0,0,1-2.35,3,6.54,6.54,0,0,1-2.14.32,7.39,7.39,0,0,1-3.76-.88c0,.46-.11.73-.35.8a2,2,0,0,1-.37,0V34.68h.86Q159.85,38,162.94,38Z"/><path class="cls-1" d="M172.9,37.75a1.6,1.6,0,0,1-1.52.91,1.84,1.84,0,0,1-.75-.16,1.58,1.58,0,0,1-1-1.55,1.74,1.74,0,0,1,.18-.77,1.57,1.57,0,0,1,1.53-1,1.74,1.74,0,0,1,.8.21,1.68,1.68,0,0,1,.72,2.32Z"/><path class="cls-1" d="M180.71,37.86c.27,0,.4.26.4.67h-6.4v-.7a3.76,3.76,0,0,0,.85-.08c.59-.14.89-.59.89-1.36V27.77h-1.74V27.1h4.67V37.83h1.09A.88.88,0,0,1,180.71,37.86Zm-1.28-13.53a1.69,1.69,0,0,1-1.6.93,2,2,0,0,1-.82-.18,1.66,1.66,0,0,1-1-1.6,1.94,1.94,0,0,1,.21-.86,1.68,1.68,0,0,1,1.6-1,1.78,1.78,0,0,1,.83.22,1.73,1.73,0,0,1,1,1.63A1.71,1.71,0,0,1,179.43,24.33Z"/><path class="cls-1" d="M188.16,37.86c.23,0,.35.27.35.67h-6.14v-.7a4,4,0,0,0,.83-.08c.58-.12.88-.58.88-1.36V27.77h-1.71V27.1h4.48l.14,2.22a4.63,4.63,0,0,1,.69-1.07,4.17,4.17,0,0,1,3.25-1.52,3.89,3.89,0,0,1,1.5.29q2.19.91,2.19,4.06v6.75h1l.32,0c.23,0,.34.27.34.67h-6.11v-.7a2.42,2.42,0,0,0,.86-.11c.41-.14.61-.58.61-1.33V30.68a4,4,0,0,0-.13-1.07,1.83,1.83,0,0,0-1.9-1.57,2.16,2.16,0,0,0-1,.27,3.43,3.43,0,0,0-1.6,2.93l0,6.59h.83A1.73,1.73,0,0,1,188.16,37.86Z"/><rect class="cls-2" width="200" height="60"/><path class="cls-1" d="M30,43.17A16.21,16.21,0,1,1,46.22,27,16.23,16.23,0,0,1,30,43.17Zm0-30.12a14,14,0,1,0,14,14A14.06,14.06,0,0,0,30,13.05Z"/><circle class="cls-1" cx="9.55" cy="9.42" r="4.83"/><circle class="cls-1" cx="50.45" cy="9.56" r="4.83"/><circle class="cls-1" cx="9.55" cy="50.58" r="4.83"/><circle class="cls-1" cx="50.41" cy="50.36" r="4.83"/><rect class="cls-1" x="12.84" y="9.5" width="3.48" height="10.05" transform="translate(-6 14.56) rotate(-45)"/><rect class="cls-1" x="41.82" y="36.45" width="3.48" height="14.11" transform="translate(-18 43.54) rotate(-45)"/><rect class="cls-1" x="14.56" y="36.44" width="3.48" height="14.55" transform="translate(-3.09 86.14) rotate(-135)"/><rect class="cls-1" x="43.71" y="9.86" width="3.48" height="9.67" transform="translate(67.2 57.21) rotate(-135)"/><path class="cls-3" d="M9.55,13.35a3.79,3.79,0,1,1,3.79-3.79,4.87,4.87,0,0,1-.05.65l-.54-.1a3.39,3.39,0,0,0,0-.55A3.24,3.24,0,1,0,9.55,12.8a3,3,0,0,0,.79-.1l.14.53A3.65,3.65,0,0,1,9.55,13.35Z"/><path class="cls-3" d="M50.7,54.28a3.8,3.8,0,0,1-3.79-3.65A4.63,4.63,0,0,1,47,50l.54.07a3.44,3.44,0,0,0,0,.56,3.24,3.24,0,0,0,6.48-.23,3.19,3.19,0,0,0-1-2.26,3.25,3.25,0,0,0-2.32-.87,3.43,3.43,0,0,0-.79.13l-.15-.53a4.1,4.1,0,0,1,.92-.14,3.78,3.78,0,0,1,3.92,3.65,3.8,3.8,0,0,1-3.66,3.92Z"/><path class="cls-3" d="M9.55,54.37a3.79,3.79,0,0,1-.2-7.57,3.51,3.51,0,0,1,.65,0l-.06.54a3.49,3.49,0,0,0-.56,0,3.24,3.24,0,0,0,.34,6.47A3.17,3.17,0,0,0,12,52.75a3.23,3.23,0,0,0,.83-2.34,3.54,3.54,0,0,0-.14-.79l.52-.16a4.14,4.14,0,0,1,.17.92,3.8,3.8,0,0,1-3.59,4Z"/><path class="cls-3" d="M50.35,13.31a5.27,5.27,0,0,1-.56,0l.08-.55a3.52,3.52,0,0,0,.56,0,3.23,3.23,0,0,0,2.27-1A3.24,3.24,0,0,0,48,7.28a3.22,3.22,0,0,0-.9,2.31,3.43,3.43,0,0,0,.12.79l-.53.15a4.1,4.1,0,0,1-.14-.92,3.78,3.78,0,1,1,3.88,3.7Z"/><path class="cls-1" d="M20.26,33.5V19.69h3.56a9.08,9.08,0,0,1,2.9.34,3,3,0,0,1,1.49,1.15,4.21,4.21,0,0,1,.61,1.65A25.62,25.62,0,0,1,29,26.6a25.37,25.37,0,0,1-.18,3.76A4.28,4.28,0,0,1,28.21,32a3,3,0,0,1-1.49,1.16,9.44,9.44,0,0,1-2.9.33ZM23.5,22.27V31a.65.65,0,0,0,.19,0H24a2.4,2.4,0,0,0,.87-.14,1.31,1.31,0,0,0,.56-.46,2.12,2.12,0,0,0,.24-1c.05-.48.07-1.41.07-2.81V26c0-1.15,0-1.93-.06-2.33a1.67,1.67,0,0,0-.24-.83,1.07,1.07,0,0,0-.55-.44,2.66,2.66,0,0,0-.92-.14h-.27Z"/><path class="cls-1" d="M31,33.5V19.69h3.22v5.73l2.42-5.73h3.3l-3,6L40,33.5H36.59l-1.7-5-.7,1.32V33.5Z"/></svg>