<svg width="19" height="24" viewBox="0 0 19 24" fill="none" xmlns="http://www.w3.org/2000/svg">
<path id="Vector" d="M17.8128 21.2208H1.19218C0.877316 21.2208 0.57535 21.3454 0.352709 21.5672C0.130068 21.789 0.00498969 22.0898 0.00498969 22.4035C0.00498969 22.7172 0.130068 23.018 0.352709 23.2398C0.57535 23.4616 0.877316 23.5862 1.19218 23.5862H17.8128C18.1277 23.5862 18.4296 23.4616 18.6523 23.2398C18.8749 23.018 19 22.7172 19 22.4035C19 22.0898 18.8749 21.789 18.6523 21.5672C18.4296 21.3454 18.1277 21.2208 17.8128 21.2208ZM1.19218 18.8553H1.29902L6.2496 18.4059C6.7919 18.352 7.29912 18.114 7.6861 17.7317L18.3708 7.08718C18.7855 6.65071 19.0096 6.06827 18.994 5.46748C18.9785 4.86669 18.7245 4.29655 18.2877 3.88199L15.0348 0.641322C14.6102 0.24404 14.0539 0.0160845 13.4717 0.000819342C12.8894 -0.0144458 12.3218 0.184044 11.8769 0.558531L1.19218 11.2031C0.808438 11.5886 0.569503 12.0939 0.51548 12.6342L0.00498969 17.5661C-0.011003 17.7394 0.01156 17.914 0.07107 18.0775C0.13058 18.2411 0.225572 18.3895 0.349274 18.5123C0.460205 18.6219 0.591765 18.7087 0.736409 18.7675C0.881053 18.8264 1.03594 18.8562 1.19218 18.8553ZM13.3846 2.29714L16.6256 5.52598L14.2512 7.8323L11.0696 4.66259L13.3846 2.29714Z" fill="#4CAF50"/>
</svg>
