<svg id="Layer_1" data-name="Layer 1" xmlns="http://www.w3.org/2000/svg" viewBox="0 0 201 201"><defs><style>.cls-1{fill:#2e3192;}.cls-2{fill:#218ffe;}.cls-3{fill:#258ef9;}.cls-4{fill:#2490fd;}.cls-5{fill:#fff;}.cls-6{fill:none;}</style></defs><circle class="cls-1" cx="100.5" cy="70.45" r="58.81"/><path class="cls-2" d="M100.52,90.48a24.66,24.66,0,1,1,24.66-24.66A24.68,24.68,0,0,1,100.52,90.48Zm0-45.82A21.36,21.36,0,1,0,121.88,66,21.38,21.38,0,0,0,100.52,44.66Z"/><circle class="cls-3" cx="69.39" cy="39.13" r="7.35"/><circle class="cls-3" cx="131.61" cy="39.35" r="7.35"/><circle class="cls-3" cx="69.39" cy="101.77" r="7.35"/><circle class="cls-3" cx="131.55" cy="101.42" r="7.35"/><rect class="cls-4" x="74.39" y="39.26" width="5.29" height="15.28" transform="translate(-10.6 68.21) rotate(-45)"/><rect class="cls-4" x="118.49" y="80.26" width="5.29" height="21.47" transform="translate(-28.87 112.3) rotate(-45)"/><rect class="cls-4" x="77.01" y="80.24" width="5.29" height="22.13" transform="translate(71.41 212.19) rotate(-135)"/><rect class="cls-4" x="121.36" y="39.8" width="5.29" height="14.71" transform="translate(178.34 168.18) rotate(-135)"/><path class="cls-5" d="M69.39,45.11a5.77,5.77,0,1,1,5.76-5.76,5.33,5.33,0,0,1-.08,1l-.82-.14a4.68,4.68,0,0,0,.07-.84,4.93,4.93,0,1,0-3.72,4.78l.2.81A6,6,0,0,1,69.39,45.11Z"/><path class="cls-5" d="M132,107.39a5.77,5.77,0,0,1-5.76-5.56,6.57,6.57,0,0,1,0-1l.83.11a4.84,4.84,0,0,0,0,.85,4.92,4.92,0,1,0,3.55-4.91l-.23-.8a5.6,5.6,0,0,1,1.4-.22,5.72,5.72,0,0,1,4.14,1.54,5.77,5.77,0,0,1-3.73,10Z"/><path class="cls-5" d="M69.39,107.53A5.76,5.76,0,0,1,69.08,96a5.55,5.55,0,0,1,1,0l-.1.83a4,4,0,0,0-.85,0,4.94,4.94,0,1,0,5.18,4.66,4.79,4.79,0,0,0-.21-1.19l.8-.25a6,6,0,0,1,.25,1.4,5.76,5.76,0,0,1-5.46,6.06Z"/><path class="cls-5" d="M131.46,45.05a6.07,6.07,0,0,1-.85-.06l.12-.82a6.06,6.06,0,0,0,.85,0A4.9,4.9,0,0,0,135,42.69a4.93,4.93,0,0,0-3.68-8.33,4.93,4.93,0,0,0-4.64,6.25l-.8.22a5.59,5.59,0,0,1-.21-1.41,5.77,5.77,0,0,1,5.63-5.9,5.77,5.77,0,1,1,.27,11.53Z"/><path class="cls-5" d="M85.68,75.78v-21H91.1a14,14,0,0,1,4.4.51A4.53,4.53,0,0,1,97.78,57a6.39,6.39,0,0,1,.93,2.51A39.44,39.44,0,0,1,99,65.27,39.25,39.25,0,0,1,98.71,71a6.45,6.45,0,0,1-.93,2.51,4.49,4.49,0,0,1-2.28,1.76,14,14,0,0,1-4.4.51Zm4.94-17.1V72l.28,0h.43a3.35,3.35,0,0,0,1.31-.22,1.87,1.87,0,0,0,.86-.69,3.39,3.39,0,0,0,.37-1.47c.07-.73.1-2.16.1-4.29v-1q0-2.62-.09-3.54a2.56,2.56,0,0,0-.36-1.27,1.72,1.72,0,0,0-.84-.67,4,4,0,0,0-1.41-.21h-.4Z"/><path class="cls-5" d="M102,75.78v-21h4.91v8.72l3.67-8.72h5L111,64l4.66,11.82h-5.16L108,68.18l-1.07,2v5.59Z"/><path class="cls-1" d="M15,144.12a12.67,12.67,0,0,1,7,1.93q4.62,3,4.62,9.2a10.41,10.41,0,0,1-3.26,7.94A11.67,11.67,0,0,1,15,166.3H4.24v-1h3V145.12H4.24v-1Zm-3.21,1V165.3H15a7.09,7.09,0,0,0,2.22-.33q4.32-1.41,4.32-9.87a20.08,20.08,0,0,0-.66-5.62A5.66,5.66,0,0,0,15,145.12Z"/><path class="cls-1" d="M38.5,165.38c.37.05.55.35.55.92H29v-1a5.84,5.84,0,0,0,1.22-.11c.74-.2,1.1-.83,1.1-1.89V151.4H29v-.92h6.09l.23,3.47A6.46,6.46,0,0,1,36.58,152a5.45,5.45,0,0,1,4-1.85,3.35,3.35,0,0,1,.89.12,2.08,2.08,0,0,1,1.74,2.21,2.2,2.2,0,0,1-2.07,2.15,2.28,2.28,0,0,1-.7-.11,2.65,2.65,0,0,1-1.33-1.41c-.32-.57-.64-.85-1-.85a1.41,1.41,0,0,0-.71.26q-1.74,1.22-2,4.77v8h2.7A1.15,1.15,0,0,1,38.5,165.38Z"/><path class="cls-1" d="M58.24,151.55a7.75,7.75,0,0,1,3.1,6.62,8.43,8.43,0,0,1-1.92,5.54,8.45,8.45,0,0,1-12.94-10.86A8.25,8.25,0,0,1,53.13,150,8.33,8.33,0,0,1,58.24,151.55Zm-8.76,11q.74,3.18,3.51,3.18a3.62,3.62,0,0,0,1.66-.37c1.5-.81,2.25-3.21,2.25-7.17a18,18,0,0,0-.37-4.07q-.73-3.18-3.54-3.18a3.64,3.64,0,0,0-1.89.48c-1.33.87-2,3.17-2,6.92A19,19,0,0,0,49.48,162.53Z"/><path class="cls-1" d="M71.43,165.38c.32.07.48.38.48.92h-8.5v-1a5.47,5.47,0,0,0,1.15-.11c.81-.18,1.22-.8,1.22-1.89V151.4H63.41v-.92h6.21l.18,3.07a7.2,7.2,0,0,1,1-1.48A5.81,5.81,0,0,1,75.27,150a5.27,5.27,0,0,1,2.07.41q3,1.26,3,5.62v9.35h1.45a2.25,2.25,0,0,1,.44,0c.32.07.48.38.48.92H74.28v-1a3.59,3.59,0,0,0,1.18-.15c.57-.2.85-.81.85-1.85v-7.91a5.31,5.31,0,0,0-.19-1.48,2.53,2.53,0,0,0-2.62-2.18,3,3,0,0,0-1.4.37,4.78,4.78,0,0,0-2.22,4.07l0,9.13H71A2.25,2.25,0,0,1,71.43,165.38Z"/><path class="cls-1" d="M98.93,163.68q-1.89,3-6.1,3a9,9,0,0,1-4.47-1.11c-2.49-1.45-3.73-3.87-3.73-7.24A8.79,8.79,0,0,1,86.21,153,7.62,7.62,0,0,1,92.72,150a9.6,9.6,0,0,1,4.18.89,4.71,4.71,0,0,1,2.95,4.4,2.54,2.54,0,0,1-.37,1.4c-.74,1.14-3,1.67-6.65,1.59l-3.73-.07v.07q.18,7.37,4.51,7.36a5.09,5.09,0,0,0,1.59-.26,5.46,5.46,0,0,0,3.4-3.07l.88.3A7.15,7.15,0,0,1,98.93,163.68ZM91.87,151q-2.62.83-2.77,6.07l2.84.11a8.83,8.83,0,0,0,2.37-.19,2,2,0,0,0,1.26-2.18,6.16,6.16,0,0,0-.12-1.22q-.44-2.7-2.73-2.7A3.74,3.74,0,0,0,91.87,151Z"/><path class="cls-1" d="M110.65,165.38c.37.05.55.35.55.92h-9.61v-1a7.58,7.58,0,0,0,1.15-.08,1.76,1.76,0,0,0,1.66-1.92v-20.1h-2.81v-1h6.88v16l7.24-6.84H113v-.92h6.29a2.33,2.33,0,0,1,0,.37c0,.37-.36.55-.92.55a2.73,2.73,0,0,0-.67.08,5,5,0,0,0-1.92,1.37l-3,2.8,5.92,9.69h.81a1.78,1.78,0,0,1,.41,0c.32.05.48.35.48.92l-5.73,0-4.73-8-1.44,1.37v5.62h1.84A1.18,1.18,0,0,1,110.65,165.38Z"/><path class="cls-1" d="M129.31,165.38c.37.05.56.35.56.92H121v-1a5.34,5.34,0,0,0,1.19-.11c.81-.2,1.22-.83,1.22-1.89V151.4H121v-.92h6.47v14.86H129A1.15,1.15,0,0,1,129.31,165.38Zm-1.77-18.74a2.36,2.36,0,0,1-2.22,1.29,2.72,2.72,0,0,1-1.15-.26,2.28,2.28,0,0,1-1.36-2.22,2.6,2.6,0,0,1,.29-1.18,2.34,2.34,0,0,1,2.22-1.37,2.56,2.56,0,0,1,2.51,2.55A2.58,2.58,0,0,1,127.54,146.64Z"/><path class="cls-1" d="M131.38,150.59h2.55v-3.51l4.07-.78v4.29h5.17v1H138v11.2c0,.25,0,.49,0,.74.18,1.4.78,2.11,1.81,2.11,1.21,0,2.09-1.14,2.63-3.33l1,.15a9.32,9.32,0,0,1-.59,2,3.93,3.93,0,0,1-4,2.33c-3.1-.13-4.77-2-5-5.55v-9.61h-2.55Z"/><path class="cls-1" d="M150.82,165.63c1.65,0,2.68-.55,3.07-1.66a2.71,2.71,0,0,0,.11-.74c0-1.18-.78-2.18-2.33-3-.34-.17-.89-.42-1.62-.74a12.28,12.28,0,0,1-3.81-2.29,4.1,4.1,0,0,1-1-2.74c0-1.94,1.06-3.29,3.18-4a9.67,9.67,0,0,1,3.14-.48,8.58,8.58,0,0,1,4.44,1c0-.74.19-1.15.59-1.22a1.5,1.5,0,0,1,.37,0v4.62h-1.11q-.15-3.36-3.7-3.4c-1.65,0-2.67.52-3.07,1.55a2.57,2.57,0,0,0-.14.82c0,1,.74,1.93,2.21,2.69l1.56.71a11.73,11.73,0,0,1,3.88,2.32,4.34,4.34,0,0,1,1.11,3,4.18,4.18,0,0,1-3.26,4.22,9.42,9.42,0,0,1-2.95.44,10.27,10.27,0,0,1-5.21-1.22q0,1-.48,1.11a4.05,4.05,0,0,1-.52,0V161h1.18Q146.53,165.6,150.82,165.63Z"/><path class="cls-1" d="M164.61,165.23a2.22,2.22,0,0,1-2.11,1.25,2.55,2.55,0,0,1-1-.22,2.18,2.18,0,0,1-1.33-2.14,2.37,2.37,0,0,1,.25-1.07,2.17,2.17,0,0,1,2.11-1.33,2.3,2.3,0,0,1,1.11.29,2.23,2.23,0,0,1,1.29,2.11A2.3,2.3,0,0,1,164.61,165.23Z"/><path class="cls-1" d="M175.44,165.38c.37.05.55.35.55.92h-8.87v-1a5.24,5.24,0,0,0,1.18-.11c.82-.2,1.22-.83,1.22-1.89V151.4h-2.4v-.92h6.47v14.86h1.52A1.15,1.15,0,0,1,175.44,165.38Zm-1.78-18.74a2.33,2.33,0,0,1-2.21,1.29,2.72,2.72,0,0,1-1.15-.26,2.29,2.29,0,0,1-1.37-2.22,2.61,2.61,0,0,1,.3-1.18,2.34,2.34,0,0,1,2.22-1.37,2.37,2.37,0,0,1,1.14.3,2.4,2.4,0,0,1,1.37,2.25A2.47,2.47,0,0,1,173.66,146.64Z"/><path class="cls-1" d="M185.75,165.38c.32.07.48.38.48.92h-8.5v-1a5.54,5.54,0,0,0,1.15-.11c.81-.18,1.22-.8,1.22-1.89V151.4h-2.37v-.92h6.21l.18,3.07a7.2,7.2,0,0,1,1-1.48,5.81,5.81,0,0,1,4.51-2.11,5.27,5.27,0,0,1,2.07.41q3,1.26,3,5.62v9.35h1.45a2.25,2.25,0,0,1,.44,0c.32.07.48.38.48.92H188.6v-1a3.59,3.59,0,0,0,1.18-.15c.57-.2.85-.81.85-1.85v-7.91a5.31,5.31,0,0,0-.19-1.48,2.53,2.53,0,0,0-2.62-2.18,3,3,0,0,0-1.4.37,4.78,4.78,0,0,0-2.22,4.07l0,9.13h1.15A2.25,2.25,0,0,1,185.75,165.38Z"/><rect class="cls-6" x="0.5" y="0.5" width="200" height="200"/></svg>