<svg id="Layer_1" data-name="Layer 1" xmlns="http://www.w3.org/2000/svg" viewBox="0 0 201 61"><defs><style>.cls-1{fill:none;}.cls-2{fill:#fff;}.cls-3{fill:#445082;}</style></defs><rect class="cls-1" x="0.5" y="0.5" width="200" height="60"/><path class="cls-2" d="M65.33,23.05a9.11,9.11,0,0,1,5,1.38A7.32,7.32,0,0,1,73.7,31a7.51,7.51,0,0,1-2.34,5.72,8.4,8.4,0,0,1-6,2.23H57.62v-.72h2.13V23.76H57.62v-.71ZM63,23.76V38.27h2.34A5,5,0,0,0,67,38q3.1-1,3.11-7.09a14.27,14.27,0,0,0-.48-4,4.08,4.08,0,0,0-4.23-3.14Z"/><path class="cls-2" d="M82.25,38.33c.27,0,.4.25.4.66h-7.2V38.3a4.26,4.26,0,0,0,.88-.08c.53-.14.79-.59.79-1.36V28.28H75.45v-.66h4.38L80,30.11a5,5,0,0,1,.88-1.38,4,4,0,0,1,2.9-1.33,2.72,2.72,0,0,1,.63.08,1.51,1.51,0,0,1,1.25,1.6,1.46,1.46,0,0,1-.13.61,1.39,1.39,0,0,1-1.35.93,1.7,1.7,0,0,1-.51-.08,1.89,1.89,0,0,1-1-1c-.23-.41-.46-.61-.69-.61a1,1,0,0,0-.5.18c-.83.59-1.31,1.73-1.44,3.43V38.3H82A.88.88,0,0,1,82.25,38.33Z"/><path class="cls-2" d="M96.44,28.39a5.54,5.54,0,0,1,2.23,4.75,6.09,6.09,0,0,1-1.38,4,6.2,6.2,0,0,1-8.45.85,5.88,5.88,0,0,1-2.18-4.84A5.81,5.81,0,0,1,88,29.32a6.52,6.52,0,0,1,8.45-.93Zm-6.3,7.89c.36,1.52,1.2,2.28,2.53,2.28a2.57,2.57,0,0,0,1.19-.26c1.08-.59,1.62-2.3,1.62-5.16a12.89,12.89,0,0,0-.26-2.92,2.51,2.51,0,0,0-2.55-2.28,2.62,2.62,0,0,0-1.36.34q-1.43.93-1.43,5A14.37,14.37,0,0,0,90.14,36.28Z"/><path class="cls-2" d="M105.93,38.33c.23.05.34.27.34.66h-6.11V38.3a4,4,0,0,0,.83-.08c.58-.12.87-.58.87-1.36V28.28h-1.7v-.66h4.47l.13,2.2a5.34,5.34,0,0,1,.69-1.06,4.16,4.16,0,0,1,3.24-1.51,3.7,3.7,0,0,1,1.49.29q2.17.9,2.18,4V38.3h1a1.66,1.66,0,0,1,.32,0c.23.05.35.27.35.66H108V38.3a2.56,2.56,0,0,0,.85-.11c.41-.14.62-.58.62-1.33V31.18a4,4,0,0,0-.14-1.07,1.81,1.81,0,0,0-1.88-1.56,2.2,2.2,0,0,0-1,.26,3.46,3.46,0,0,0-1.6,2.93l0,6.56h.82A1.73,1.73,0,0,1,105.93,38.33Z"/><path class="cls-2" d="M125.7,37.1a4.8,4.8,0,0,1-4.39,2.16,6.51,6.51,0,0,1-3.21-.8,5.56,5.56,0,0,1-2.69-5.21,6.23,6.23,0,0,1,1.15-3.8,5.44,5.44,0,0,1,4.67-2.2,7,7,0,0,1,3,.63A3.4,3.4,0,0,1,126.36,31a1.92,1.92,0,0,1-.26,1c-.54.82-2.13,1.2-4.79,1.15l-2.68-.06v.06q.14,5.28,3.24,5.28A3.67,3.67,0,0,0,123,38.3a3.94,3.94,0,0,0,2.45-2.21l.64.22A5.87,5.87,0,0,1,125.7,37.1ZM120.62,28q-1.89.59-2,4.35l2.05.08a6.09,6.09,0,0,0,1.7-.13,1.45,1.45,0,0,0,.9-1.57,4.94,4.94,0,0,0-.08-.87c-.21-1.3-.87-1.94-2-1.94A2.23,2.23,0,0,0,120.62,28Z"/><path class="cls-2" d="M134.12,38.33c.27,0,.4.25.4.66h-6.91V38.3a6.32,6.32,0,0,0,.82,0,1.27,1.27,0,0,0,1.2-1.39V22.41h-2v-.69h4.94V33.2l5.21-4.92h-2v-.66h4.52a2.28,2.28,0,0,1,0,.26c0,.27-.26.4-.67.4a2.28,2.28,0,0,0-.48,0,3.67,3.67,0,0,0-1.38,1l-2.12,2,4.25,7h.58a1.29,1.29,0,0,1,.29,0c.23,0,.35.25.35.66L137,39l-3.4-5.74-1,1v4h1.33A.88.88,0,0,1,134.12,38.33Z"/><path class="cls-2" d="M147.54,38.33c.27,0,.4.25.4.66h-6.38V38.3a3.76,3.76,0,0,0,.85-.08c.59-.14.88-.59.88-1.36V28.28h-1.73v-.66h4.65V38.3h1.09A.88.88,0,0,1,147.54,38.33Zm-1.28-13.48a1.67,1.67,0,0,1-1.59.93,2,2,0,0,1-.82-.18,1.65,1.65,0,0,1-1-1.6,1.82,1.82,0,0,1,.22-.85,1.67,1.67,0,0,1,1.59-1A1.85,1.85,0,0,1,146.48,24,1.68,1.68,0,0,1,146.26,24.85Z"/><path class="cls-2" d="M149,27.7h1.83V25.17l2.92-.56V27.7h3.72v.69h-3.72v8a4.71,4.71,0,0,0,0,.53c.12,1,.56,1.51,1.3,1.51s1.5-.81,1.89-2.39l.72.11a6.37,6.37,0,0,1-.43,1.41,2.81,2.81,0,0,1-2.84,1.67q-3.34-.14-3.59-4V28.39H149Z"/><path class="cls-2" d="M163,38.51c1.19,0,1.93-.4,2.21-1.19a2,2,0,0,0,.08-.54c0-.85-.56-1.56-1.67-2.15-.25-.12-.64-.3-1.17-.53a8.63,8.63,0,0,1-2.74-1.65,3,3,0,0,1,1.57-4.86,6.92,6.92,0,0,1,2.26-.34,6.09,6.09,0,0,1,3.18.74c0-.53.15-.83.43-.88a1.23,1.23,0,0,1,.27,0v3.32h-.8A2.34,2.34,0,0,0,164,28c-1.19,0-1.92.37-2.2,1.12a1.49,1.49,0,0,0-.11.58c0,.75.53,1.39,1.59,1.94l1.12.51a8.44,8.44,0,0,1,2.79,1.67,3.12,3.12,0,0,1,.8,2.13,3,3,0,0,1-2.34,3,6.8,6.8,0,0,1-2.13.32,7.39,7.39,0,0,1-3.74-.88c0,.46-.12.72-.35.8l-.37,0v-4h.85C159.9,37.38,161,38.49,163,38.51Z"/><path class="cls-2" d="M172.92,38.22a1.61,1.61,0,0,1-1.52.9,1.76,1.76,0,0,1-.74-.16,1.57,1.57,0,0,1-1-1.54,1.65,1.65,0,0,1,.19-.77,1.55,1.55,0,0,1,1.51-1,1.72,1.72,0,0,1,.8.22,1.67,1.67,0,0,1,.72,2.31Z"/><path class="cls-2" d="M180.7,38.33c.27,0,.4.25.4.66h-6.38V38.3a3.76,3.76,0,0,0,.85-.08c.59-.14.88-.59.88-1.36V28.28h-1.73v-.66h4.65V38.3h1.09A.88.88,0,0,1,180.7,38.33Zm-1.27-13.48a1.7,1.7,0,0,1-1.6.93,2,2,0,0,1-.82-.18,1.65,1.65,0,0,1-1-1.6,2,2,0,0,1,.22-.85,1.67,1.67,0,0,1,1.59-1,1.79,1.79,0,0,1,.83.21,1.75,1.75,0,0,1,1,1.62A1.78,1.78,0,0,1,179.43,24.85Z"/><path class="cls-2" d="M188.11,38.33c.23.05.35.27.35.66h-6.11V38.3a3.86,3.86,0,0,0,.82-.08c.59-.12.88-.58.88-1.36V28.28h-1.7v-.66h4.46l.14,2.2a4.58,4.58,0,0,1,.69-1.06,4.13,4.13,0,0,1,3.24-1.51,3.7,3.7,0,0,1,1.49.29q2.17.9,2.18,4V38.3h1a1.73,1.73,0,0,1,.32,0c.23.05.35.27.35.66h-6.09V38.3a2.61,2.61,0,0,0,.85-.11c.41-.14.61-.58.61-1.33V31.18a4,4,0,0,0-.13-1.07,1.82,1.82,0,0,0-1.89-1.56,2.26,2.26,0,0,0-1,.26A3.43,3.43,0,0,0,187,31.74l0,6.56h.83A1.63,1.63,0,0,1,188.11,38.33Z"/><path class="cls-2" d="M30.51,43.67A16.21,16.21,0,1,1,46.72,27.46,16.23,16.23,0,0,1,30.51,43.67Zm0-30.12a14,14,0,1,0,14,14A14.06,14.06,0,0,0,30.51,13.55Z"/><circle class="cls-2" cx="10.05" cy="9.92" r="4.83"/><circle class="cls-2" cx="50.95" cy="10.06" r="4.83"/><circle class="cls-2" cx="10.05" cy="51.08" r="4.83"/><circle class="cls-2" cx="50.91" cy="50.86" r="4.83"/><rect class="cls-2" x="13.34" y="10" width="3.48" height="10.05" transform="translate(-6.21 15.06) rotate(-45)"/><rect class="cls-2" x="42.32" y="36.95" width="3.48" height="14.11" transform="translate(-18.21 44.04) rotate(-45)"/><rect class="cls-2" x="15.06" y="36.94" width="3.48" height="14.55" transform="translate(-2.59 87.35) rotate(-135)"/><rect class="cls-2" x="44.21" y="10.36" width="3.48" height="9.67" transform="translate(67.7 58.42) rotate(-135)"/><path class="cls-3" d="M10.05,13.85a3.79,3.79,0,1,1,3.79-3.79,4.87,4.87,0,0,1-.05.65l-.54-.1a3.39,3.39,0,0,0,0-.55,3.24,3.24,0,1,0-3.24,3.24,3,3,0,0,0,.79-.1l.14.53A3.65,3.65,0,0,1,10.05,13.85Z"/><path class="cls-3" d="M51.2,54.78a3.8,3.8,0,0,1-3.79-3.65,4.63,4.63,0,0,1,0-.65l.54.07a3.44,3.44,0,0,0,0,.56,3.24,3.24,0,0,0,6.48-.23,3.19,3.19,0,0,0-1-2.26,3.25,3.25,0,0,0-2.32-.87,3.43,3.43,0,0,0-.79.13l-.15-.53a4.1,4.1,0,0,1,.92-.14A3.78,3.78,0,0,1,55,50.86a3.8,3.8,0,0,1-3.66,3.92Z"/><path class="cls-3" d="M10.05,54.87a3.79,3.79,0,0,1-.2-7.57,3.51,3.51,0,0,1,.65,0l-.06.54a3.49,3.49,0,0,0-.56,0,3.24,3.24,0,0,0,.34,6.47,3.17,3.17,0,0,0,2.24-1.07,3.23,3.23,0,0,0,.83-2.34,3.54,3.54,0,0,0-.14-.79l.52-.16a4.14,4.14,0,0,1,.17.92,3.8,3.8,0,0,1-3.59,4Z"/><path class="cls-3" d="M50.85,13.81a5.27,5.27,0,0,1-.56,0l.08-.55a3.52,3.52,0,0,0,.56,0,3.23,3.23,0,0,0,2.27-1,3.24,3.24,0,0,0-4.69-4.47,3.22,3.22,0,0,0-.9,2.31,3.43,3.43,0,0,0,.12.79L47.2,11a4.1,4.1,0,0,1-.14-.92,3.78,3.78,0,1,1,3.88,3.7Z"/><path class="cls-2" d="M20.76,34V20.19h3.56a9.08,9.08,0,0,1,2.9.34,3,3,0,0,1,1.49,1.15,4.21,4.21,0,0,1,.61,1.65,25.62,25.62,0,0,1,.18,3.77,25.37,25.37,0,0,1-.18,3.76,4.28,4.28,0,0,1-.61,1.65,3,3,0,0,1-1.49,1.16,9.44,9.44,0,0,1-2.9.33ZM24,22.77v8.71a.65.65,0,0,0,.19,0h.28a2.4,2.4,0,0,0,.87-.14,1.31,1.31,0,0,0,.56-.46,2.12,2.12,0,0,0,.24-1c.05-.48.07-1.41.07-2.81v-.63c0-1.15,0-1.93-.06-2.33a1.67,1.67,0,0,0-.24-.83,1.07,1.07,0,0,0-.55-.44,2.66,2.66,0,0,0-.92-.14h-.27Z"/><path class="cls-2" d="M31.47,34V20.19h3.22v5.73l2.42-5.73h3.3l-3,6L40.48,34H37.09l-1.7-5-.7,1.32V34Z"/></svg>