<svg id="Layer_1" data-name="Layer 1" xmlns="http://www.w3.org/2000/svg" viewBox="0 0 201 61"><defs><style>.cls-1{fill:none;}.cls-2{fill:#fff;}.cls-3{fill:#445082;}</style></defs><rect class="cls-1" x="0.5" y="0.5" width="200" height="60"/><path class="cls-2" d="M60.69,46.05V37.8h1.13V45h4.11v1Z"/><path class="cls-2" d="M70.75,44.11h1a2.44,2.44,0,0,1-.87,1.56,2.68,2.68,0,0,1-1.76.57,2.46,2.46,0,0,1-2-.84,3.4,3.4,0,0,1-.72-2.29,3.65,3.65,0,0,1,.71-2.4,2.45,2.45,0,0,1,2-.86,2.54,2.54,0,0,1,2,.8,3.27,3.27,0,0,1,.71,2.24v.28c0,.06,0,.11,0,.17H67.48A2.26,2.26,0,0,0,68,44.8a1.81,1.81,0,0,0,2.28.21A1.46,1.46,0,0,0,70.75,44.11ZM67.48,42.5h3.29a1.86,1.86,0,0,0-.42-1.3,1.56,1.56,0,0,0-1.2-.45A1.54,1.54,0,0,0,68,41.2,2,2,0,0,0,67.48,42.5Z"/><path class="cls-2" d="M74.16,44.53a.85.85,0,0,0,.12.54.54.54,0,0,0,.42.14h.22l.32,0V46a4.14,4.14,0,0,1-.45.07,2.24,2.24,0,0,1-.35,0,1.44,1.44,0,0,1-1-.27,1.34,1.34,0,0,1-.28-1v-4h-.9v-.8h.9V38.37h1v1.68h1.08v.8H74.16Z"/><path class="cls-2" d="M82.66,46.05H81.53V42.74l-3-4.94h1.4l2.21,3.9,2.19-3.9h1.31l-2.93,4.86Z"/><path class="cls-2" d="M84.9,43a3.4,3.4,0,0,1,.75-2.35,3.1,3.1,0,0,1,4.24,0,4.06,4.06,0,0,1,0,4.7,3.08,3.08,0,0,1-4.23,0A3.36,3.36,0,0,1,84.9,43Zm1,0a2.63,2.63,0,0,0,.48,1.7,1.64,1.64,0,0,0,1.37.59,1.6,1.6,0,0,0,1.35-.59,3.31,3.31,0,0,0,0-3.4,1.6,1.6,0,0,0-1.35-.59,1.62,1.62,0,0,0-1.37.59A2.63,2.63,0,0,0,85.93,43Z"/><path class="cls-2" d="M92.87,40.05v3.68A2.07,2.07,0,0,0,93.14,45a1.15,1.15,0,0,0,.94.34,1.65,1.65,0,0,0,1.32-.51,2.23,2.23,0,0,0,.45-1.51V40.05h1v6h-1v-.9a2,2,0,0,1-.82.78,2.41,2.41,0,0,1-1.17.27A2.5,2.5,0,0,1,92.82,46a1.62,1.62,0,0,1-.71-.6,1.65,1.65,0,0,1-.2-.51,5.25,5.25,0,0,1-.06-.94V40.05Z"/><path class="cls-2" d="M98.39,46.05v-6h1v1.07a2,2,0,0,1,.65-.9,1.68,1.68,0,0,1,1-.3h.16l.1,0V41h-.24a1.63,1.63,0,0,0-1.23.44,1.78,1.78,0,0,0-.42,1.28v3.34Z"/><path class="cls-2" d="M107.51,46.05l-2.93-8.25h1.16l2.37,6.9,2.3-6.9h1.17l-2.9,8.25Z"/><path class="cls-2" d="M112.35,38.94V37.8h1v1.14Zm0,7.11v-6h1v6Z"/><path class="cls-2" d="M114.48,44.1h1a1.29,1.29,0,0,0,.44.92,1.68,1.68,0,0,0,1.09.31,1.79,1.79,0,0,0,1-.25.8.8,0,0,0,.38-.7.62.62,0,0,0-.19-.5,1.68,1.68,0,0,0-.73-.31l-1.12-.29a2.79,2.79,0,0,1-1.33-.61,1.46,1.46,0,0,1-.37-1.08,1.51,1.51,0,0,1,.6-1.26,2.63,2.63,0,0,1,1.65-.47,2.69,2.69,0,0,1,1.7.5,1.63,1.63,0,0,1,.64,1.34v0h-1a1,1,0,0,0-.39-.73,1.57,1.57,0,0,0-1-.26,1.68,1.68,0,0,0-.93.21.7.7,0,0,0-.31.62.55.55,0,0,0,.2.46,1.86,1.86,0,0,0,.74.28l1,.23a3.3,3.3,0,0,1,1.44.63,1.48,1.48,0,0,1,.39,1.1,1.73,1.73,0,0,1-.66,1.45,2.88,2.88,0,0,1-1.84.52,2.55,2.55,0,0,1-1.77-.55A2,2,0,0,1,114.48,44.1Z"/><path class="cls-2" d="M120.59,38.94V37.8h1v1.14Zm0,7.11v-6h1v6Z"/><path class="cls-2" d="M122.83,43a3.4,3.4,0,0,1,.75-2.35,2.69,2.69,0,0,1,2.11-.84,2.74,2.74,0,0,1,2.13.84,4.06,4.06,0,0,1,0,4.7,3.1,3.1,0,0,1-4.24,0A3.4,3.4,0,0,1,122.83,43Zm1,0a2.69,2.69,0,0,0,.47,1.7,1.65,1.65,0,0,0,1.37.59,1.62,1.62,0,0,0,1.36-.59,3.31,3.31,0,0,0,0-3.4,1.62,1.62,0,0,0-1.36-.59,1.65,1.65,0,0,0-1.37.59A2.63,2.63,0,0,0,123.86,43Z"/><path class="cls-2" d="M133.79,46.05V42.36a2.07,2.07,0,0,0-.27-1.23,1.14,1.14,0,0,0-.93-.34,1.75,1.75,0,0,0-1.32.48,1.87,1.87,0,0,0-.46,1.36v3.42h-1v-6h1v.87a2.3,2.3,0,0,1,.82-.77,2.33,2.33,0,0,1,1.11-.25,2.77,2.77,0,0,1,1.14.2,1.52,1.52,0,0,1,.92,1.13,5,5,0,0,1,.06.93v3.89Z"/><path class="cls-2" d="M141.4,46.05V38.8h-2.6v-1h6.33v1h-2.6v7.25Z"/><path class="cls-2" d="M148.35,45.24a3.2,3.2,0,0,1-1,.74,2.59,2.59,0,0,1-1.13.25,2,2,0,0,1-1.43-.48,1.73,1.73,0,0,1-.52-1.32,1.66,1.66,0,0,1,.51-1.29,2.77,2.77,0,0,1,1.54-.59l.71-.08a6.55,6.55,0,0,0,1-.15.41.41,0,0,0,.22-.18,1.15,1.15,0,0,0,.06-.47.76.76,0,0,0-.34-.69,1.74,1.74,0,0,0-1-.23,1.63,1.63,0,0,0-1,.28,1,1,0,0,0-.36.83h-.95v0a1.75,1.75,0,0,1,.64-1.43,2.67,2.67,0,0,1,1.75-.53,2.86,2.86,0,0,1,1.78.45,1.69,1.69,0,0,1,.57,1.41v3a.91.91,0,0,0,.08.5.35.35,0,0,0,.3.11h.11l.16,0v.78l-.33.07-.26,0a1.14,1.14,0,0,1-.75-.22.84.84,0,0,1-.26-.66ZM148.26,43a4.33,4.33,0,0,1-1.38.35,5.12,5.12,0,0,0-.52.07,1.49,1.49,0,0,0-.79.32.93.93,0,0,0-.24.69.84.84,0,0,0,.28.68,1.13,1.13,0,0,0,.8.25,2.11,2.11,0,0,0,1.33-.41,1.29,1.29,0,0,0,.52-1Z"/><path class="cls-2" d="M150.87,46.05V37.8h1v4.94l2.71-2.69h1.27l-2.24,2.19,2.21,3.81h-1.14l-1.75-3.11-1.06,1v2.09Z"/><path class="cls-2" d="M160.84,44.11h1a2.48,2.48,0,0,1-.86,1.56,2.72,2.72,0,0,1-1.77.57,2.46,2.46,0,0,1-2-.84,3.4,3.4,0,0,1-.72-2.29,3.66,3.66,0,0,1,.72-2.4,2.42,2.42,0,0,1,2-.86,2.54,2.54,0,0,1,2,.8,3.22,3.22,0,0,1,.71,2.24v.28c0,.06,0,.11,0,.17h-4.33a2.2,2.2,0,0,0,.47,1.46,1.79,1.79,0,0,0,2.27.21A1.46,1.46,0,0,0,160.84,44.11Zm-3.27-1.61h3.29a1.86,1.86,0,0,0-.42-1.3,1.79,1.79,0,0,0-2.37,0A2.09,2.09,0,0,0,157.57,42.5Z"/><path class="cls-2" d="M166.34,46.05V37.8h5.53v1h-4.41v2.48h3.85v1h-3.85v3.73Z"/><path class="cls-2" d="M172.92,46.05V37.8h1v8.25Z"/><path class="cls-2" d="M175.5,38.94V37.8h1v1.14Zm0,7.11v-6h1v6Z"/><path class="cls-2" d="M182.36,45.31a2.39,2.39,0,0,1-.83.7,2.48,2.48,0,0,1-1.08.23,2.4,2.4,0,0,1-1.95-.88,3.54,3.54,0,0,1-.74-2.33,3.46,3.46,0,0,1,.74-2.31,2.46,2.46,0,0,1,2-.87,2.32,2.32,0,0,1,1,.23,2.41,2.41,0,0,1,.83.72v-.75h1v5.87a2.63,2.63,0,0,1-.66,2,3,3,0,0,1-2.13.62,3.25,3.25,0,0,1-1.87-.46,1.48,1.48,0,0,1-.67-1.29v0h1v0a.75.75,0,0,0,.4.69,2.33,2.33,0,0,0,1.19.24,2,2,0,0,0,1.37-.37,1.5,1.5,0,0,0,.42-1.19Zm-1.78-4.55a1.57,1.57,0,0,0-1.31.59,3.3,3.3,0,0,0,0,3.38,1.58,1.58,0,0,0,1.31.6,1.63,1.63,0,0,0,1.36-.55,2.69,2.69,0,0,0,.44-1.69,2.76,2.76,0,0,0-.46-1.74A1.6,1.6,0,0,0,180.58,40.76Z"/><path class="cls-2" d="M188.86,46.05V42.36a2,2,0,0,0-.27-1.23,1.11,1.11,0,0,0-.93-.34,1.79,1.79,0,0,0-1.3.47,1.63,1.63,0,0,0-.48,1.24v3.55h-1V37.8h1v3.09a1.84,1.84,0,0,1,.75-.74,2.41,2.41,0,0,1,1.13-.25,2.77,2.77,0,0,1,1.14.2,1.52,1.52,0,0,1,.92,1.13,5,5,0,0,1,.06.93v3.89Z"/><path class="cls-2" d="M192.58,44.53a.87.87,0,0,0,.11.54.54.54,0,0,0,.42.14h.22l.33,0V46c-.17,0-.32.06-.45.07a2.43,2.43,0,0,1-.36,0,1.46,1.46,0,0,1-1-.27,1.34,1.34,0,0,1-.28-1v-4h-.9v-.8h.9V38.37h1v1.68h1.08v.8h-1.08Z"/><path class="cls-2" d="M65.33,15.39a9.11,9.11,0,0,1,5,1.38,7.34,7.34,0,0,1,3.33,6.62,7.49,7.49,0,0,1-2.34,5.71,8.4,8.4,0,0,1-6,2.23H57.62v-.71h2.13V16.11H57.62v-.72ZM63,16.11V30.62h2.34a5,5,0,0,0,1.6-.24c2.07-.68,3.11-3,3.11-7.1a14.32,14.32,0,0,0-.48-4,4.07,4.07,0,0,0-4.23-3.13Z"/><path class="cls-2" d="M82.25,30.67c.27,0,.4.26.4.66h-7.2v-.69a3.66,3.66,0,0,0,.88-.08c.53-.14.79-.59.79-1.35V20.62H75.45V20h4.38l.16,2.5a4.71,4.71,0,0,1,.88-1.38,3.91,3.91,0,0,1,2.9-1.33,2.27,2.27,0,0,1,.63.08,1.49,1.49,0,0,1,1.25,1.59,1.42,1.42,0,0,1-.13.61,1.39,1.39,0,0,1-1.35.93,1.44,1.44,0,0,1-.51-.08,1.85,1.85,0,0,1-1-1c-.23-.4-.46-.61-.69-.61a.92.92,0,0,0-.5.19c-.83.58-1.31,1.73-1.44,3.43v5.76H82A.88.88,0,0,1,82.25,30.67Z"/><path class="cls-2" d="M96.44,20.73a5.56,5.56,0,0,1,2.23,4.76,6,6,0,0,1-1.38,4,6.2,6.2,0,0,1-8.45.85,5.87,5.87,0,0,1-2.18-4.83A5.81,5.81,0,0,1,88,21.66a6.52,6.52,0,0,1,8.45-.93Zm-6.3,7.89c.36,1.53,1.2,2.29,2.53,2.29a2.57,2.57,0,0,0,1.19-.27q1.62-.87,1.62-5.15a13,13,0,0,0-.26-2.93,2.51,2.51,0,0,0-2.55-2.28,2.62,2.62,0,0,0-1.36.34c-1,.63-1.43,2.28-1.43,5A14.37,14.37,0,0,0,90.14,28.62Z"/><path class="cls-2" d="M105.93,30.67c.23,0,.34.27.34.66h-6.11v-.69a3.38,3.38,0,0,0,.83-.08q.87-.18.87-1.35V20.62h-1.7V20h4.47l.13,2.21a5.13,5.13,0,0,1,.69-1.07,4.16,4.16,0,0,1,3.24-1.51,3.88,3.88,0,0,1,1.49.29q2.17.9,2.18,4v6.72h1a1.66,1.66,0,0,1,.32,0c.23,0,.35.27.35.66H108v-.69a2.61,2.61,0,0,0,.85-.1c.41-.15.62-.59.62-1.33V23.52a3.89,3.89,0,0,0-.14-1.06,1.81,1.81,0,0,0-1.88-1.57,2.1,2.1,0,0,0-1,.27,3.44,3.44,0,0,0-1.6,2.92l0,6.56h.82A1.73,1.73,0,0,1,105.93,30.67Z"/><path class="cls-2" d="M125.7,29.45a4.81,4.81,0,0,1-4.39,2.15,6.51,6.51,0,0,1-3.21-.8,5.55,5.55,0,0,1-2.69-5.21,6.25,6.25,0,0,1,1.15-3.8,5.44,5.44,0,0,1,4.67-2.2,6.82,6.82,0,0,1,3,.64,3.38,3.38,0,0,1,2.12,3.16,2,2,0,0,1-.26,1c-.54.81-2.13,1.19-4.79,1.14l-2.68-.05v.05q.14,5.3,3.24,5.29a3.41,3.41,0,0,0,1.14-.19,3.92,3.92,0,0,0,2.45-2.2l.64.21A6,6,0,0,1,125.7,29.45Zm-5.08-9.09q-1.89.59-2,4.36l2.05.08a6.42,6.42,0,0,0,1.7-.14,1.45,1.45,0,0,0,.9-1.56,5.05,5.05,0,0,0-.08-.88c-.21-1.29-.87-1.94-2-1.94A2.69,2.69,0,0,0,120.62,20.36Z"/><path class="cls-2" d="M134.12,30.67c.27,0,.4.26.4.66h-6.91v-.69a6.32,6.32,0,0,0,.82-.05,1.26,1.26,0,0,0,1.2-1.38V14.75h-2v-.69h4.94V25.54l5.21-4.92h-2V20h4.52a2.45,2.45,0,0,1,0,.27c0,.26-.26.39-.67.39a1.75,1.75,0,0,0-.48.06,3.61,3.61,0,0,0-1.38,1l-2.12,2,4.25,7h.58a1.29,1.29,0,0,1,.29,0c.23,0,.35.26.35.66l-4.12,0-3.4-5.74-1,1v4h1.33A.88.88,0,0,1,134.12,30.67Z"/><path class="cls-2" d="M147.54,30.67c.27,0,.4.26.4.66h-6.38v-.69a3.25,3.25,0,0,0,.85-.08c.59-.14.88-.59.88-1.35V20.62h-1.73V20h4.65V30.64h1.09A.88.88,0,0,1,147.54,30.67ZM146.26,17.2a1.67,1.67,0,0,1-1.59.93,1.83,1.83,0,0,1-.82-.19,1.64,1.64,0,0,1-1-1.59,1.77,1.77,0,0,1,.22-.85,1.66,1.66,0,0,1,1.59-1,1.63,1.63,0,0,1,.82.22,1.8,1.8,0,0,1,.77,2.47Z"/><path class="cls-2" d="M149,20h1.83V17.52l2.92-.56V20h3.72v.69h-3.72v8.05a4.58,4.58,0,0,0,0,.53c.12,1,.56,1.52,1.3,1.52s1.5-.82,1.89-2.39l.72.1a6.37,6.37,0,0,1-.43,1.41,2.81,2.81,0,0,1-2.84,1.68q-3.34-.14-3.59-4V20.73H149Z"/><path class="cls-2" d="M163,30.85c1.19,0,1.93-.39,2.21-1.19a2,2,0,0,0,.08-.53c0-.85-.56-1.57-1.67-2.15q-.37-.19-1.17-.54a8.84,8.84,0,0,1-2.74-1.64,3,3,0,0,1-.72-2,2.94,2.94,0,0,1,2.29-2.9,6.92,6.92,0,0,1,2.26-.34,6.18,6.18,0,0,1,3.18.74c0-.53.15-.82.43-.87l.27,0v3.32h-.8A2.33,2.33,0,0,0,164,20.31c-1.19,0-1.92.37-2.2,1.11a1.54,1.54,0,0,0-.11.59c0,.74.53,1.39,1.59,1.94l1.12.5a8.25,8.25,0,0,1,2.79,1.68,3.11,3.11,0,0,1,.8,2.12,3,3,0,0,1-2.34,3,6.8,6.8,0,0,1-2.13.32,7.29,7.29,0,0,1-3.74-.88c0,.46-.12.73-.35.8a2.05,2.05,0,0,1-.37,0v-4h.85C159.9,29.72,161,30.84,163,30.85Z"/><path class="cls-2" d="M172.92,30.56a1.6,1.6,0,0,1-1.52.91,1.93,1.93,0,0,1-.74-.16,1.58,1.58,0,0,1-1-1.54,1.6,1.6,0,0,1,.19-.77,1.55,1.55,0,0,1,1.51-1,1.71,1.71,0,0,1,.8.21,1.67,1.67,0,0,1,.72,2.31Z"/><path class="cls-2" d="M180.7,30.67c.27,0,.4.26.4.66h-6.38v-.69a3.25,3.25,0,0,0,.85-.08c.59-.14.88-.59.88-1.35V20.62h-1.73V20h4.65V30.64h1.09A.88.88,0,0,1,180.7,30.67ZM179.43,17.2a1.7,1.7,0,0,1-1.6.93,1.83,1.83,0,0,1-.82-.19,1.64,1.64,0,0,1-1-1.59,1.89,1.89,0,0,1,.22-.85,1.66,1.66,0,0,1,1.59-1,1.69,1.69,0,0,1,.83.22,1.73,1.73,0,0,1,1,1.62A1.81,1.81,0,0,1,179.43,17.2Z"/><path class="cls-2" d="M188.11,30.67c.23,0,.35.27.35.66h-6.11v-.69a3.3,3.3,0,0,0,.82-.08c.59-.12.88-.57.88-1.35V20.62h-1.7V20h4.46l.14,2.21a4.43,4.43,0,0,1,.69-1.07,4.13,4.13,0,0,1,3.24-1.51,3.88,3.88,0,0,1,1.49.29q2.17.9,2.18,4v6.72h1a1.73,1.73,0,0,1,.32,0c.23,0,.35.27.35.66h-6.09v-.69a2.65,2.65,0,0,0,.85-.1c.41-.15.61-.59.61-1.33V23.52a3.9,3.9,0,0,0-.13-1.06,1.82,1.82,0,0,0-1.89-1.57,2.16,2.16,0,0,0-1,.27A3.41,3.41,0,0,0,187,24.08l0,6.56h.83A1.63,1.63,0,0,1,188.11,30.67Z"/><path class="cls-2" d="M30.51,43.67A16.21,16.21,0,1,1,46.72,27.46,16.23,16.23,0,0,1,30.51,43.67Zm0-30.12a14,14,0,1,0,14,14A14.06,14.06,0,0,0,30.51,13.55Z"/><circle class="cls-2" cx="10.05" cy="9.92" r="4.83"/><circle class="cls-2" cx="50.95" cy="10.06" r="4.83"/><circle class="cls-2" cx="10.05" cy="51.08" r="4.83"/><circle class="cls-2" cx="50.91" cy="50.86" r="4.83"/><rect class="cls-2" x="13.34" y="10" width="3.48" height="10.05" transform="translate(-6.21 15.06) rotate(-45)"/><rect class="cls-2" x="42.32" y="36.95" width="3.48" height="14.11" transform="translate(-18.21 44.04) rotate(-45)"/><rect class="cls-2" x="15.06" y="36.94" width="3.48" height="14.55" transform="translate(-2.59 87.35) rotate(-135)"/><rect class="cls-2" x="44.21" y="10.36" width="3.48" height="9.67" transform="translate(67.7 58.42) rotate(-135)"/><path class="cls-3" d="M10.05,13.85a3.79,3.79,0,1,1,3.79-3.79,4.87,4.87,0,0,1-.05.65l-.54-.1a3.39,3.39,0,0,0,0-.55,3.24,3.24,0,1,0-3.24,3.24,3,3,0,0,0,.79-.1l.14.53A3.65,3.65,0,0,1,10.05,13.85Z"/><path class="cls-3" d="M51.2,54.78a3.8,3.8,0,0,1-3.79-3.65,4.63,4.63,0,0,1,0-.65l.54.07a3.44,3.44,0,0,0,0,.56,3.24,3.24,0,0,0,6.48-.23,3.19,3.19,0,0,0-1-2.26,3.25,3.25,0,0,0-2.32-.87,3.43,3.43,0,0,0-.79.13l-.15-.53a4.1,4.1,0,0,1,.92-.14A3.78,3.78,0,0,1,55,50.86a3.8,3.8,0,0,1-3.66,3.92Z"/><path class="cls-3" d="M10.05,54.87a3.79,3.79,0,0,1-.2-7.57,3.51,3.51,0,0,1,.65,0l-.06.54a3.49,3.49,0,0,0-.56,0,3.24,3.24,0,0,0,.34,6.47,3.17,3.17,0,0,0,2.24-1.07,3.23,3.23,0,0,0,.83-2.34,3.54,3.54,0,0,0-.14-.79l.52-.16a4.14,4.14,0,0,1,.17.92,3.8,3.8,0,0,1-3.59,4Z"/><path class="cls-3" d="M50.85,13.81a5.27,5.27,0,0,1-.56,0l.08-.55a3.52,3.52,0,0,0,.56,0,3.23,3.23,0,0,0,2.27-1,3.24,3.24,0,0,0-4.69-4.47,3.22,3.22,0,0,0-.9,2.31,3.43,3.43,0,0,0,.12.79L47.2,11a4.1,4.1,0,0,1-.14-.92,3.78,3.78,0,1,1,3.88,3.7Z"/><path class="cls-2" d="M20.76,34V20.19h3.56a9.08,9.08,0,0,1,2.9.34,3,3,0,0,1,1.49,1.15,4.21,4.21,0,0,1,.61,1.65,25.62,25.62,0,0,1,.18,3.77,25.37,25.37,0,0,1-.18,3.76,4.28,4.28,0,0,1-.61,1.65,3,3,0,0,1-1.49,1.16,9.44,9.44,0,0,1-2.9.33ZM24,22.77v8.71a.65.65,0,0,0,.19,0h.28a2.4,2.4,0,0,0,.87-.14,1.31,1.31,0,0,0,.56-.46,2.12,2.12,0,0,0,.24-1c.05-.48.07-1.41.07-2.81v-.63c0-1.15,0-1.93-.06-2.33a1.67,1.67,0,0,0-.24-.83,1.07,1.07,0,0,0-.55-.44,2.66,2.66,0,0,0-.92-.14h-.27Z"/><path class="cls-2" d="M31.47,34V20.19h3.22v5.73l2.42-5.73h3.3l-3,6L40.48,34H37.09l-1.7-5-.7,1.32V34Z"/></svg>