<svg id="Layer_1" data-name="Layer 1" xmlns="http://www.w3.org/2000/svg" viewBox="0 0 150 45"><defs><style>.cls-1{fill:none;}.cls-2{fill:#fff;}.cls-3{fill:#445082;}</style></defs><rect class="cls-1" width="150" height="45"/><path class="cls-2" d="M45.14,34.16V28H46v5.41h3.08v.78Z"/><path class="cls-2" d="M52.69,32.71h.74a1.84,1.84,0,0,1-.64,1.17,2.06,2.06,0,0,1-1.33.43A1.84,1.84,0,0,1,50,33.68,2.52,2.52,0,0,1,49.44,32a2.72,2.72,0,0,1,.54-1.8,1.83,1.83,0,0,1,1.48-.65,1.92,1.92,0,0,1,1.51.6,2.47,2.47,0,0,1,.53,1.68,1.1,1.1,0,0,1,0,.21.57.57,0,0,1,0,.13H50.24a1.66,1.66,0,0,0,.35,1.1,1.34,1.34,0,0,0,1.71.15A1.11,1.11,0,0,0,52.69,32.71ZM50.23,31.5H52.7a1.38,1.38,0,0,0-.32-1,1.13,1.13,0,0,0-.89-.34,1.17,1.17,0,0,0-.88.33A1.63,1.63,0,0,0,50.23,31.5Z"/><path class="cls-2" d="M55.25,33a.74.74,0,0,0,.08.41.41.41,0,0,0,.32.1h.41v.64l-.34.05-.27,0a1,1,0,0,1-.74-.21,1,1,0,0,1-.22-.73v-3h-.67v-.6h.67V28.41h.76v1.25h.81v.6h-.81Z"/><path class="cls-2" d="M61.62,34.16h-.84V31.68L58.48,28h1.06l1.65,2.93L62.83,28h1l-2.2,3.65Z"/><path class="cls-2" d="M63.3,31.9a2.58,2.58,0,0,1,.56-1.76,2.32,2.32,0,0,1,3.18,0,3,3,0,0,1,0,3.53,2.31,2.31,0,0,1-3.17,0A2.55,2.55,0,0,1,63.3,31.9Zm.77,0a2,2,0,0,0,.36,1.28,1.24,1.24,0,0,0,1,.45,1.2,1.2,0,0,0,1-.45,2.44,2.44,0,0,0,0-2.55,1.19,1.19,0,0,0-1-.44,1.23,1.23,0,0,0-1,.44A2,2,0,0,0,64.07,31.9Z"/><path class="cls-2" d="M69.28,29.66v2.76a1.51,1.51,0,0,0,.2.92.88.88,0,0,0,.71.26,1.28,1.28,0,0,0,1-.38,1.72,1.72,0,0,0,.33-1.14V29.66h.76v4.5h-.72v-.67a1.54,1.54,0,0,1-.61.58,1.76,1.76,0,0,1-.88.2,1.91,1.91,0,0,1-.82-.16,1.12,1.12,0,0,1-.53-.45,1.13,1.13,0,0,1-.15-.39,3.66,3.66,0,0,1,0-.69V29.66Z"/><path class="cls-2" d="M73.42,34.16v-4.5h.73v.81a1.48,1.48,0,0,1,.49-.68,1.27,1.27,0,0,1,.76-.23h.2v.8h-.18a1.24,1.24,0,0,0-.93.33,1.34,1.34,0,0,0-.31,1v2.5Z"/><path class="cls-2" d="M80.26,34.16,78.06,28h.87l1.78,5.18L82.43,28h.88l-2.17,6.19Z"/><path class="cls-2" d="M83.89,28.83V28h.75v.86Zm0,5.33v-4.5h.75v4.5Z"/><path class="cls-2" d="M85.49,32.7h.72a1,1,0,0,0,.33.69,1.25,1.25,0,0,0,.82.24,1.35,1.35,0,0,0,.77-.2.58.58,0,0,0,.28-.52.52.52,0,0,0-.14-.38,1.31,1.31,0,0,0-.55-.23l-.84-.22a2.07,2.07,0,0,1-1-.45,1.25,1.25,0,0,1,.18-1.76,2,2,0,0,1,1.23-.35,2,2,0,0,1,1.28.38,1.19,1.19,0,0,1,.47,1v0h-.73a.76.76,0,0,0-.29-.56,1.53,1.53,0,0,0-1.42,0,.52.52,0,0,0-.24.46.44.44,0,0,0,.15.35,1.41,1.41,0,0,0,.56.21l.73.18a2.28,2.28,0,0,1,1.07.47,1.07,1.07,0,0,1,.3.82,1.31,1.31,0,0,1-.5,1.09,2.18,2.18,0,0,1-1.38.39A2,2,0,0,1,86,33.89,1.55,1.55,0,0,1,85.49,32.7Z"/><path class="cls-2" d="M90.06,28.83V28h.76v.86Zm0,5.33v-4.5h.76v4.5Z"/><path class="cls-2" d="M91.74,31.9a2.54,2.54,0,0,1,.57-1.76,2,2,0,0,1,1.58-.63,2,2,0,0,1,1.6.63,3.06,3.06,0,0,1,0,3.53,2.32,2.32,0,0,1-3.18,0A2.55,2.55,0,0,1,91.74,31.9Zm.78,0a2,2,0,0,0,.36,1.28,1.23,1.23,0,0,0,1,.45,1.22,1.22,0,0,0,1-.45,2.5,2.5,0,0,0,0-2.55,1.21,1.21,0,0,0-1-.44,1.24,1.24,0,0,0-1,.44A2,2,0,0,0,92.52,31.9Z"/><path class="cls-2" d="M100,34.16V31.39a1.5,1.5,0,0,0-.21-.92.84.84,0,0,0-.7-.25,1.3,1.3,0,0,0-1,.36,1.42,1.42,0,0,0-.35,1v2.56H97v-4.5h.73v.66a1.6,1.6,0,0,1,.61-.58,1.72,1.72,0,0,1,.83-.19,2.21,2.21,0,0,1,.86.15,1.14,1.14,0,0,1,.53.46,1.38,1.38,0,0,1,.16.39,3.88,3.88,0,0,1,0,.69v2.92Z"/><path class="cls-2" d="M105.68,34.16V28.72h-2V28h4.75v.75h-2v5.44Z"/><path class="cls-2" d="M110.89,33.56a2.41,2.41,0,0,1-.75.55,1.85,1.85,0,0,1-.84.19,1.53,1.53,0,0,1-1.08-.36,1.31,1.31,0,0,1-.38-1,1.24,1.24,0,0,1,.38-1,2.11,2.11,0,0,1,1.15-.45l.54-.05a3,3,0,0,0,.7-.12.33.33,0,0,0,.18-.13,1.2,1.2,0,0,0,0-.36.6.6,0,0,0-.25-.51,1.34,1.34,0,0,0-.76-.17,1.29,1.29,0,0,0-.8.21.75.75,0,0,0-.26.62H108v0a1.31,1.31,0,0,1,.48-1.07,2,2,0,0,1,1.32-.4,2.16,2.16,0,0,1,1.33.34,1.29,1.29,0,0,1,.43,1.06v2.25a.72.72,0,0,0,.06.37.26.26,0,0,0,.23.09H112l.11,0v.59l-.24,0h-.19a.86.86,0,0,1-.57-.16.62.62,0,0,1-.19-.5Zm-.07-1.69a3.41,3.41,0,0,1-1,.26l-.39,0a1.21,1.21,0,0,0-.59.24.7.7,0,0,0-.18.52.64.64,0,0,0,.21.51.9.9,0,0,0,.6.18,1.59,1.59,0,0,0,1-.3,1,1,0,0,0,.39-.79Z"/><path class="cls-2" d="M112.78,34.16V28h.76v3.71l2-2h1l-1.68,1.64,1.66,2.86h-.85l-1.32-2.33-.79.76v1.57Z"/><path class="cls-2" d="M120.26,32.71H121a1.84,1.84,0,0,1-.64,1.17,2.06,2.06,0,0,1-1.33.43,1.84,1.84,0,0,1-1.47-.63A2.57,2.57,0,0,1,117,32a2.72,2.72,0,0,1,.54-1.8,1.83,1.83,0,0,1,1.48-.65,1.92,1.92,0,0,1,1.51.6,2.47,2.47,0,0,1,.53,1.68V32s0,.09,0,.13h-3.24a1.66,1.66,0,0,0,.35,1.1,1.34,1.34,0,0,0,1.71.15A1.11,1.11,0,0,0,120.26,32.71ZM117.8,31.5h2.47a1.38,1.38,0,0,0-.32-1,1.13,1.13,0,0,0-.89-.34,1.17,1.17,0,0,0-.88.33A1.63,1.63,0,0,0,117.8,31.5Z"/><path class="cls-2" d="M124.38,34.16V28h4.15v.78h-3.31v1.86h2.89v.75h-2.89v2.8Z"/><path class="cls-2" d="M129.31,34.16V28h.77v6.19Z"/><path class="cls-2" d="M131.25,28.83V28H132v.86Zm0,5.33v-4.5H132v4.5Z"/><path class="cls-2" d="M136.39,33.61a1.62,1.62,0,0,1-.62.52,1.73,1.73,0,0,1-.81.18,1.8,1.8,0,0,1-1.46-.67,2.62,2.62,0,0,1-.56-1.74,2.57,2.57,0,0,1,.56-1.73,1.83,1.83,0,0,1,1.47-.66,1.8,1.8,0,0,1,.79.17,2,2,0,0,1,.62.55v-.57h.74v4.4a2,2,0,0,1-.49,1.51A2.3,2.3,0,0,1,135,36a2.36,2.36,0,0,1-1.4-.35,1.1,1.1,0,0,1-.51-1v0h.74v0a.56.56,0,0,0,.3.52,1.74,1.74,0,0,0,.89.18,1.51,1.51,0,0,0,1-.28,1.12,1.12,0,0,0,.31-.89Zm-1.33-3.42a1.17,1.17,0,0,0-1,.45,2,2,0,0,0-.35,1.27,2,2,0,0,0,.36,1.26,1.17,1.17,0,0,0,1,.46,1.22,1.22,0,0,0,1-.42,2,2,0,0,0,.33-1.27,2.06,2.06,0,0,0-.35-1.3A1.17,1.17,0,0,0,135.06,30.19Z"/><path class="cls-2" d="M141.27,34.16V31.39a1.58,1.58,0,0,0-.2-.92.85.85,0,0,0-.7-.25,1.34,1.34,0,0,0-1,.35,1.2,1.2,0,0,0-.37.93v2.66h-.75V28H139V30.3a1.4,1.4,0,0,1,.57-.56,1.75,1.75,0,0,1,.85-.19,2.15,2.15,0,0,1,.85.15,1.22,1.22,0,0,1,.54.46,1.13,1.13,0,0,1,.15.39,3.66,3.66,0,0,1,0,.69v2.92Z"/><path class="cls-2" d="M144.06,33a.74.74,0,0,0,.08.41.41.41,0,0,0,.32.1h.41v.64l-.34.05-.27,0a1.08,1.08,0,0,1-.75-.21,1,1,0,0,1-.21-.73v-3h-.67v-.6h.67V28.41h.76v1.25h.81v.6h-.81Z"/><path class="cls-2" d="M48.62,11.17a6.88,6.88,0,0,1,3.79,1,5.51,5.51,0,0,1,2.49,5,5.62,5.62,0,0,1-1.76,4.28,6.27,6.27,0,0,1-4.5,1.68h-5.8v-.54h1.59V11.71H42.84v-.54Zm-1.73.54V22.59h1.75a3.78,3.78,0,0,0,1.2-.18q2.32-.77,2.33-5.32a10.64,10.64,0,0,0-.36-3,3,3,0,0,0-3.17-2.35Z"/><path class="cls-2" d="M61.31,22.63c.2,0,.3.19.3.5h-5.4v-.52a3,3,0,0,0,.66-.06q.6-.16.6-1V15.09H56.21V14.6H59.5l.12,1.87a3.53,3.53,0,0,1,.66-1,3,3,0,0,1,2.17-1,2,2,0,0,1,.48.06,1.12,1.12,0,0,1,.94,1.19,1.23,1.23,0,0,1-.1.46,1,1,0,0,1-1,.7,1.21,1.21,0,0,1-.38-.06,1.44,1.44,0,0,1-.72-.76c-.17-.31-.34-.46-.52-.46a.75.75,0,0,0-.37.14,3.25,3.25,0,0,0-1.08,2.57v4.33h1.45A.5.5,0,0,1,61.31,22.63Z"/><path class="cls-2" d="M72,15.17a4.19,4.19,0,0,1,1.67,3.57,4.55,4.55,0,0,1-1,3,4.67,4.67,0,0,1-6.33.64,4.41,4.41,0,0,1-1.64-3.63,4.31,4.31,0,0,1,1-2.87,4.44,4.44,0,0,1,3.59-1.55A4.5,4.5,0,0,1,72,15.17Zm-4.73,5.92c.27,1.15.9,1.72,1.9,1.72a2,2,0,0,0,.89-.2c.81-.44,1.22-1.73,1.22-3.87a10,10,0,0,0-.2-2.19c-.27-1.14-.9-1.72-1.91-1.72a2,2,0,0,0-1,.26c-.72.47-1.08,1.71-1.08,3.73A10.57,10.57,0,0,0,67.23,21.09Z"/><path class="cls-2" d="M79.07,22.63c.17,0,.26.2.26.5H74.75v-.52a2.68,2.68,0,0,0,.61-.06c.44-.1.66-.43.66-1V15.09H74.75V14.6h3.34l.1,1.65a4.06,4.06,0,0,1,.52-.8,3.15,3.15,0,0,1,2.43-1.13,2.8,2.8,0,0,1,1.12.22c1.09.45,1.63,1.46,1.63,3v5.05h.78a1,1,0,0,1,.24,0c.17,0,.26.2.26.5H80.61v-.52a2,2,0,0,0,.63-.08c.31-.11.46-.44.46-1V17.27a2.83,2.83,0,0,0-.1-.8,1.37,1.37,0,0,0-1.41-1.18,1.63,1.63,0,0,0-.76.2,2.61,2.61,0,0,0-1.2,2.19l0,4.93h.62A1,1,0,0,1,79.07,22.63Z"/><path class="cls-2" d="M93.9,21.71a3.59,3.59,0,0,1-3.29,1.61,4.86,4.86,0,0,1-2.41-.59,4.18,4.18,0,0,1-2-3.91A4.7,4.7,0,0,1,87,16a4.09,4.09,0,0,1,3.51-1.65,5.23,5.23,0,0,1,2.25.47,2.57,2.57,0,0,1,1.6,2.38,1.4,1.4,0,0,1-.2.75c-.4.61-1.6.9-3.59.86l-2,0v0c.06,2.64.87,4,2.43,4a2.82,2.82,0,0,0,.86-.14A3,3,0,0,0,93.72,21l.48.16A4.2,4.2,0,0,1,93.9,21.71Zm-3.81-6.82c-.94.3-1.44,1.39-1.49,3.27l1.53.06a4.51,4.51,0,0,0,1.28-.1A1.09,1.09,0,0,0,92.08,17a3.52,3.52,0,0,0-.06-.66c-.15-1-.65-1.46-1.47-1.46A1.88,1.88,0,0,0,90.09,14.89Z"/><path class="cls-2" d="M100.22,22.63c.19,0,.29.19.29.5H95.33v-.52a5.23,5.23,0,0,0,.62,0,1,1,0,0,0,.9-1V10.69H95.33v-.52H99v8.61L103,15.09h-1.48V14.6h3.39a1.23,1.23,0,0,1,0,.19c0,.2-.19.3-.5.3a2,2,0,0,0-.36,0,2.77,2.77,0,0,0-1,.74l-1.6,1.52,3.19,5.22H105a.78.78,0,0,1,.22,0c.17,0,.26.19.26.5l-3.09,0-2.55-4.31-.78.74v3h1A.55.55,0,0,1,100.22,22.63Z"/><path class="cls-2" d="M110.28,22.63c.2,0,.3.19.3.5H105.8v-.52a2.68,2.68,0,0,0,.63-.06q.66-.16.66-1V15.09H105.8V14.6h3.48v8h.82A.5.5,0,0,1,110.28,22.63Zm-1-10.11a1.25,1.25,0,0,1-1.19.7,1.48,1.48,0,0,1-.62-.14,1.24,1.24,0,0,1-.74-1.19,1.48,1.48,0,0,1,.16-.64,1.26,1.26,0,0,1,1.2-.74,1.27,1.27,0,0,1,.62.16,1.3,1.3,0,0,1,.73,1.22A1.28,1.28,0,0,1,109.32,12.52Z"/><path class="cls-2" d="M111.4,14.66h1.37v-1.9l2.19-.42v2.32h2.79v.51H115v6c0,.13,0,.27,0,.4.1.76.42,1.14,1,1.14s1.12-.61,1.41-1.8l.54.08a4.43,4.43,0,0,1-.32,1.06,2.1,2.1,0,0,1-2.13,1.25c-1.67-.06-2.57-1.06-2.69-3V15.17H111.4Z"/><path class="cls-2" d="M121.88,22.77q1.34,0,1.65-.9a1.39,1.39,0,0,0,.06-.4c0-.64-.42-1.17-1.25-1.61-.19-.1-.48-.23-.88-.4a6.55,6.55,0,0,1-2-1.24,2.24,2.24,0,0,1,1.17-3.64,5.06,5.06,0,0,1,1.7-.26,4.65,4.65,0,0,1,2.39.55c0-.39.1-.61.32-.65a.65.65,0,0,1,.2,0v2.49h-.6a1.76,1.76,0,0,0-2-1.84c-.89,0-1.45.28-1.66.84a1.36,1.36,0,0,0-.08.44c0,.56.4,1,1.2,1.45l.83.38a6.47,6.47,0,0,1,2.1,1.26,2.31,2.31,0,0,1,.59,1.59,2.25,2.25,0,0,1-1.75,2.28,5.31,5.31,0,0,1-1.59.23,5.49,5.49,0,0,1-2.81-.65c0,.34-.09.54-.26.59a1.19,1.19,0,0,1-.28,0v-3h.64C119.55,21.92,120.34,22.75,121.88,22.77Z"/><path class="cls-2" d="M129.31,22.55a1.19,1.19,0,0,1-1.13.67,1.55,1.55,0,0,1-.56-.11A1.19,1.19,0,0,1,126.9,22a1.34,1.34,0,0,1,.14-.58,1.17,1.17,0,0,1,1.14-.72,1.34,1.34,0,0,1,.59.16,1.19,1.19,0,0,1,.7,1.14A1.17,1.17,0,0,1,129.31,22.55Z"/><path class="cls-2" d="M135.15,22.63c.2,0,.3.19.3.5h-4.78v-.52a2.62,2.62,0,0,0,.63-.06q.66-.16.66-1V15.09h-1.29V14.6h3.48v8H135A.5.5,0,0,1,135.15,22.63Zm-1-10.11a1.25,1.25,0,0,1-1.19.7,1.51,1.51,0,0,1-.62-.14,1.24,1.24,0,0,1-.74-1.19,1.48,1.48,0,0,1,.16-.64,1.26,1.26,0,0,1,1.2-.74,1.27,1.27,0,0,1,.62.16,1.3,1.3,0,0,1,.73,1.22A1.28,1.28,0,0,1,134.19,12.52Z"/><path class="cls-2" d="M140.71,22.63c.17,0,.26.2.26.5h-4.58v-.52a2.68,2.68,0,0,0,.61-.06c.44-.1.66-.43.66-1V15.09h-1.27V14.6h3.34l.1,1.65a4.06,4.06,0,0,1,.52-.8,3.15,3.15,0,0,1,2.43-1.13,2.8,2.8,0,0,1,1.12.22c1.09.45,1.63,1.46,1.63,3v5.05h.78a1,1,0,0,1,.24,0c.17,0,.26.2.26.5h-4.56v-.52a2,2,0,0,0,.63-.08c.31-.11.46-.44.46-1V17.27a2.83,2.83,0,0,0-.1-.8,1.37,1.37,0,0,0-1.41-1.18,1.63,1.63,0,0,0-.76.2,2.61,2.61,0,0,0-1.2,2.19l0,4.93h.62A1,1,0,0,1,140.71,22.63Z"/><path class="cls-2" d="M22.51,32.37A12.16,12.16,0,1,1,34.67,20.22,12.17,12.17,0,0,1,22.51,32.37Zm0-22.58A10.53,10.53,0,1,0,33,20.31,10.54,10.54,0,0,0,22.51,9.79Z"/><circle class="cls-2" cx="7.16" cy="7.06" r="3.62"/><circle class="cls-2" cx="37.84" cy="7.17" r="3.62"/><circle class="cls-2" cx="7.16" cy="37.94" r="3.62"/><circle class="cls-2" cx="37.81" cy="37.77" r="3.62"/><rect class="cls-2" x="9.63" y="7.12" width="2.61" height="7.53" transform="translate(-4.5 10.92) rotate(-45)"/><rect class="cls-2" x="31.37" y="27.34" width="2.61" height="10.59" transform="translate(-13.5 32.66) rotate(-45)"/><rect class="cls-2" x="10.92" y="27.33" width="2.61" height="10.91" transform="translate(-2.32 64.61) rotate(-135)"/><rect class="cls-2" x="32.78" y="7.39" width="2.61" height="7.25" transform="translate(50.4 42.91) rotate(-135)"/><path class="cls-3" d="M7.16,10A2.85,2.85,0,1,1,10,7.17a2.61,2.61,0,0,1,0,.48l-.4-.07a2.73,2.73,0,0,0,0-.41A2.43,2.43,0,1,0,7.16,9.6a3.07,3.07,0,0,0,.6-.07l.1.39A2.74,2.74,0,0,1,7.16,10Z"/><path class="cls-3" d="M38,40.71A2.84,2.84,0,0,1,35.19,38a2.68,2.68,0,0,1,0-.49l.41.06a2,2,0,0,0,0,.42,2.43,2.43,0,1,0,2.34-2.52,2.9,2.9,0,0,0-.59.09l-.12-.39a2.85,2.85,0,0,1,2.73.65,2.84,2.84,0,0,1-1.83,4.92Z"/><path class="cls-3" d="M7.16,40.78A2.84,2.84,0,0,1,7,35.1a2.64,2.64,0,0,1,.49,0l0,.4a2.91,2.91,0,0,0-.42,0,2.43,2.43,0,0,0-2.29,2.56,2.4,2.4,0,0,0,.8,1.68,2.44,2.44,0,0,0,1.75.62A2.41,2.41,0,0,0,9,39.56a2.46,2.46,0,0,0,.52-2.34l.39-.12a2.63,2.63,0,0,1,.12.69,2.84,2.84,0,0,1-2.69,3Z"/><path class="cls-3" d="M37.76,10a3,3,0,0,1-.42,0l.06-.41a3,3,0,0,0,.42,0,2.43,2.43,0,0,0,1.7-.75,2.44,2.44,0,0,0-.08-3.44,2.37,2.37,0,0,0-1.73-.67A2.41,2.41,0,0,0,36,5.46a2.48,2.48,0,0,0-.67,1.73,2.89,2.89,0,0,0,.09.6L35,7.9a3.28,3.28,0,0,1-.1-.7A2.85,2.85,0,0,1,37.7,4.3a2.83,2.83,0,0,1,2,.78,2.84,2.84,0,0,1,.09,4,2.82,2.82,0,0,1-2,.88Z"/><path class="cls-2" d="M15.19,25.13V14.77h2.67A6.92,6.92,0,0,1,20,15a2.25,2.25,0,0,1,1.12.87,3.23,3.23,0,0,1,.46,1.23A19.46,19.46,0,0,1,21.75,20a19.29,19.29,0,0,1-.13,2.82A3.28,3.28,0,0,1,21.16,24a2.25,2.25,0,0,1-1.12.87,7.23,7.23,0,0,1-2.18.25Zm2.44-8.43v6.54H18a1.58,1.58,0,0,0,.65-.11.92.92,0,0,0,.42-.34,1.61,1.61,0,0,0,.18-.73c0-.35.05-1.06.05-2.11v-.47c0-.86,0-1.44,0-1.74a1.39,1.39,0,0,0-.18-.63.91.91,0,0,0-.41-.33,2,2,0,0,0-.7-.1h-.32Z"/><path class="cls-2" d="M23.22,25.13V14.77h2.43v4.3l1.81-4.3h2.47L27.68,19.3,30,25.13H27.44l-1.27-3.75-.52,1v2.76Z"/></svg>