<svg width="41" height="49" viewBox="0 0 41 49" fill="none" xmlns="http://www.w3.org/2000/svg">
<path id="Vector" d="M40.4813 35.7406C37.4927 32.0385 35.3827 30.1538 35.3827 19.9475C35.3827 10.601 30.6671 7.27108 26.7858 5.65385C26.2703 5.43947 25.785 4.94711 25.6279 4.41118C24.947 2.06601 23.0384 0 20.5014 0C17.9643 0 16.0546 2.06719 15.3807 4.41353C15.2236 4.95536 14.7383 5.43947 14.2228 5.65385C10.3369 7.27344 5.62588 10.5915 5.62588 19.9475C5.62006 30.1538 3.51012 32.0385 0.521515 35.7406C-0.716753 37.2742 0.367895 39.5769 2.5337 39.5769H38.4807C40.6349 39.5769 41.7125 37.2671 40.4813 35.7406ZM27.9496 39.5769V41.4615C27.9496 43.4609 27.1649 45.3783 25.7681 46.792C24.3713 48.2058 22.4768 49 20.5014 49C18.526 49 16.6315 48.2058 15.2347 46.792C13.8379 45.3783 13.0532 43.4609 13.0532 41.4615V39.5769" fill="#EF7F1B"/>
</svg>
