<svg width="27" height="25" viewBox="0 0 27 25" fill="none" xmlns="http://www.w3.org/2000/svg">
<path id="Vector" d="M8.93475 21.375C8.973 21.5572 9 21.744 9 21.9375C9 23.4911 7.74113 24.75 6.1875 24.75C4.63387 24.75 3.375 23.4911 3.375 21.9375C3.375 21.744 3.402 21.5572 3.44025 21.375H8.93475ZM13.5 0H3.375C1.51425 0 0 1.51425 0 3.375V9H9.0405L6.20775 6.16725L7.7985 4.5765L11.7562 8.53425C12.6337 9.41175 12.6337 10.8382 11.7562 11.7157L7.7985 15.6735L6.20775 14.0827L9.0405 11.25H0V19.125H16.875V3.375C16.875 1.51425 15.3608 0 13.5 0ZM19.125 19.125H27V13.5H19.125V19.125ZM19.1903 21.375C19.152 21.5572 19.125 21.744 19.125 21.9375C19.125 23.4911 20.3839 24.75 21.9375 24.75C23.4911 24.75 24.75 23.4911 24.75 21.9375C24.75 21.744 24.723 21.5572 24.6847 21.375H19.1891H19.1903ZM21.375 4.5H19.125V11.25H27V10.125C27 7.02338 24.4766 4.5 21.375 4.5Z" fill="#4F4892"/>
</svg>
