<svg width="27" height="27" viewBox="0 0 27 27" fill="none" xmlns="http://www.w3.org/2000/svg">
<g id="box-open_9246330 1" clip-path="url(#clip0_866_495)">
<path id="Vector" d="M3.36411 3.375L13.4912 0L23.6183 3.375L13.5002 6.75113L3.36411 3.36263V3.375ZM2.23888 5.625L0.325993 8.81325C-0.424535 10.0643 0.176338 11.6876 1.56037 12.1489L7.27766 14.0546C8.27799 14.3876 9.37622 13.9815 9.91858 13.0781L12.366 9.00113L2.23888 5.625ZM14.6164 9L17.0638 13.077C17.6062 13.9815 18.7044 14.3876 19.7047 14.0535L25.4636 12.1343C26.8263 11.6798 27.4182 10.0811 26.6789 8.84925L24.7435 5.625L14.6164 9ZM11.8483 14.2358C11.0134 15.6263 9.54838 16.4239 8.00569 16.4239C7.52746 16.4239 7.04249 16.3485 6.56539 16.1888L2.23888 14.7476V23.6261L12.366 27.0011V13.3729L11.8483 14.2346V14.2358ZM20.417 16.1888C19.9399 16.3485 19.4549 16.4239 18.9767 16.4239C17.434 16.4239 15.9689 15.6274 15.134 14.2358L14.6164 13.374V27.0011L24.7435 23.6261V14.7476L20.417 16.1888Z" fill="#4F4892"/>
</g>
<defs>
<clipPath id="clip0_866_495">
<rect width="27" height="27" fill="white"/>
</clipPath>
</defs>
</svg>
