<svg width="127" height="127" viewBox="0 0 127 127" fill="none" xmlns="http://www.w3.org/2000/svg">
<g id="lets-icons:upload-light">
<path id="Vector" fill-rule="evenodd" clip-rule="evenodd" d="M63.5003 13.2292C57.8854 13.2279 52.39 14.8508 47.6766 17.9023C42.9632 20.9538 39.2332 25.3035 36.9362 30.4271C36.6152 31.1535 36.2871 31.8767 35.9519 32.5967L35.5921 33.2952C35.4172 33.5826 35.1891 33.8341 34.92 34.036C34.6249 34.198 34.3017 34.3022 33.9675 34.3429C33.777 34.38 33.3855 34.3959 31.7503 34.3959C26.8383 34.3959 22.1274 36.3472 18.6541 39.8205C15.1808 43.2938 13.2295 48.0047 13.2295 52.9167C13.2295 57.8287 15.1808 62.5396 18.6541 66.0129C22.1274 69.4862 26.8383 71.4375 31.7503 71.4375H35.3063L40.598 66.1459H31.7503C28.2417 66.1459 24.8768 64.7521 22.3959 62.2711C19.9149 59.7902 18.5212 56.4253 18.5212 52.9167C18.5212 49.4081 19.9149 46.0432 22.3959 43.5623C24.8768 41.0813 28.2417 39.6875 31.7503 39.6875H32.0361C33.232 39.6875 34.2215 39.6875 35.01 39.5288C35.9625 39.3383 36.9044 39.0525 37.7934 38.4704C38.6824 37.8989 39.328 37.1581 39.8995 36.3644C40.2064 35.941 40.4816 35.3907 40.7303 34.8668C40.9913 34.3059 41.3318 33.558 41.7516 32.6231L41.7622 32.5967C43.6404 28.402 46.6921 24.8403 50.5493 22.3412C54.4065 19.8421 58.9043 18.5123 63.5003 18.5123C68.0963 18.5123 72.5942 19.8421 76.4514 22.3412C80.3085 24.8403 83.3603 28.402 85.2385 32.5967L85.2491 32.6284C85.6689 33.5598 86.0093 34.3059 86.2704 34.8668C86.5191 35.3907 86.7942 35.9357 87.1012 36.3644C87.6674 37.1581 88.3182 37.8989 89.2072 38.4757C90.0962 39.0525 91.0382 39.3383 91.9907 39.5341C92.7791 39.6928 93.7687 39.6928 94.9646 39.6875H95.2503C98.7589 39.6875 102.124 41.0813 104.605 43.5623C107.086 46.0432 108.479 49.4081 108.479 52.9167C108.479 56.4253 107.086 59.7902 104.605 62.2711C102.124 64.7521 98.7589 66.1459 95.2503 66.1459H86.4026L91.6943 71.4375H95.2503C97.6825 71.4375 100.091 70.9585 102.338 70.0277C104.585 69.0969 106.627 67.7327 108.347 66.0129C110.066 64.2931 111.431 62.2514 112.361 60.0043C113.292 57.7572 113.771 55.3489 113.771 52.9167C113.771 50.4845 113.292 48.0761 112.361 45.8291C111.431 43.582 110.066 41.5403 108.347 39.8205C106.627 38.1007 104.585 36.7364 102.338 35.8057C100.091 34.8749 97.6825 34.3959 95.2503 34.3959C93.6152 34.3959 93.2236 34.38 93.0384 34.3429C92.7039 34.3005 92.3806 34.1945 92.0859 34.0307C91.8149 33.8293 91.585 33.5778 91.4086 33.2899L91.3239 33.147L91.0487 32.5914C90.7136 31.8732 90.3855 31.1517 90.0645 30.4271C87.7675 25.3035 84.0374 20.9538 79.3241 17.9023C74.6107 14.8508 69.1152 13.2279 63.5003 13.2292Z" fill="#9D9D9D"/>
<path id="Vector_2" d="M63.4999 63.5L61.6266 61.6267L63.4999 59.7588L65.3731 61.6267L63.4999 63.5ZM66.1457 111.125C66.1457 111.827 65.867 112.5 65.3708 112.996C64.8746 113.492 64.2016 113.771 63.4999 113.771C62.7982 113.771 62.1252 113.492 61.629 112.996C61.1328 112.5 60.854 111.827 60.854 111.125H66.1457ZM40.46 82.7934L61.6266 61.6267L65.3731 65.3732L44.2065 86.5399L40.46 82.7934ZM65.3731 61.6267L86.5398 82.7934L82.7933 86.5399L61.6266 65.3732L65.3731 61.6267ZM66.1457 63.5V111.125H60.854V63.5H66.1457Z" fill="#9D9D9D"/>
</g>
</svg>
