<svg id="Layer_1" data-name="Layer 1" xmlns="http://www.w3.org/2000/svg" viewBox="0 0 64 64"><defs><style>.cls-1{fill:#445082;}.cls-2{fill:#fff;}.cls-3{fill:#2e3192;}</style></defs><circle class="cls-1" cx="32" cy="32" r="32"/><path class="cls-2" d="M32,42.9A13.42,13.42,0,1,1,45.43,29.48,13.43,13.43,0,0,1,32,42.9ZM32,18A11.62,11.62,0,1,0,43.64,29.59,11.63,11.63,0,0,0,32,18Z"/><circle class="cls-2" cx="15.07" cy="14.96" r="4"/><circle class="cls-2" cx="48.93" cy="15.07" r="4"/><circle class="cls-2" cx="15.07" cy="49.04" r="4"/><circle class="cls-2" cx="48.9" cy="48.85" r="4"/><rect class="cls-2" x="17.79" y="15.03" width="2.88" height="8.32" transform="translate(-7.93 19.22) rotate(-45)"/><rect class="cls-2" x="41.79" y="37.34" width="2.88" height="11.68" transform="translate(-17.87 43.21) rotate(-45)"/><rect class="cls-2" x="19.22" y="37.33" width="2.88" height="12.04" transform="translate(4.61 88.61) rotate(-135)"/><rect class="cls-2" x="43.35" y="15.32" width="2.88" height="8" transform="translate(62.79 64.66) rotate(-135)"/><path class="cls-3" d="M15.07,18.21a3.14,3.14,0,1,1,3.14-3.14,3.1,3.1,0,0,1-.05.54l-.44-.07a3.71,3.71,0,0,0,0-.47,2.68,2.68,0,1,0-2.68,2.69,3,3,0,0,0,.66-.08l.11.44A3.31,3.31,0,0,1,15.07,18.21Z"/><path class="cls-3" d="M49.14,52.1a3.14,3.14,0,0,1-3.14-3,4.75,4.75,0,0,1,0-.54l.45.06a2.36,2.36,0,0,0,0,.46A2.68,2.68,0,1,0,49,46.28a2.85,2.85,0,0,0-.65.11L48.26,46a3.34,3.34,0,0,1,.77-.12,3.14,3.14,0,0,1,.22,6.27Z"/><path class="cls-3" d="M15.07,52.18a3.14,3.14,0,0,1-.17-6.27,2.42,2.42,0,0,1,.54,0l0,.45a2.36,2.36,0,0,0-.46,0A2.68,2.68,0,0,0,13.28,51a2.64,2.64,0,0,0,1.93.68,2.67,2.67,0,0,0,2.54-2.82,2.85,2.85,0,0,0-.11-.65l.43-.14a3.36,3.36,0,0,1,.13.76,3.13,3.13,0,0,1-3,3.3Z"/><path class="cls-3" d="M48.85,18.18a3.71,3.71,0,0,1-.47,0l.07-.45a3.55,3.55,0,0,0,.46,0,2.7,2.7,0,0,0,1.88-.83,2.69,2.69,0,0,0-.09-3.8,2.68,2.68,0,0,0-3.79.09,2.64,2.64,0,0,0-.74,1.92,2.37,2.37,0,0,0,.09.65l-.44.12a3.87,3.87,0,0,1-.11-.76A3.14,3.14,0,0,1,52,15a3.14,3.14,0,0,1-3.07,3.21Z"/><path class="cls-2" d="M23.94,34.9V23.47h2.94a7.51,7.51,0,0,1,2.4.28,2.44,2.44,0,0,1,1.24.95A3.51,3.51,0,0,1,31,26.06a21.58,21.58,0,0,1,.14,3.12A21.4,21.4,0,0,1,31,32.3a3.56,3.56,0,0,1-.51,1.37,2.44,2.44,0,0,1-1.24.95,7.51,7.51,0,0,1-2.4.28Zm2.68-9.3v7.21l.16,0H27a1.87,1.87,0,0,0,.72-.12,1,1,0,0,0,.46-.38,1.68,1.68,0,0,0,.2-.8c0-.39.06-1.17.06-2.33v-.52c0-.95,0-1.59-.05-1.93a1.54,1.54,0,0,0-.19-.68.94.94,0,0,0-.46-.37,2.11,2.11,0,0,0-.77-.12h-.36Z"/><path class="cls-2" d="M32.8,34.9V23.47h2.67v4.74l2-4.74H40.2l-2.48,5,2.54,6.43h-2.8l-1.41-4.13-.58,1.09v3Z"/></svg>